<?xml version="1.0" standalone="no"?>
<!DOCTYPE svg PUBLIC "-//W3C//DTD SVG 20010904//EN"
 "http://www.w3.org/TR/2001/REC-SVG-20010904/DTD/svg10.dtd">
<svg version="1.0" xmlns="http://www.w3.org/2000/svg"
 width="268.000000pt" height="80.000000pt" viewBox="0 0 268.000000 80.000000"
 preserveAspectRatio="xMidYMid meet">

<g transform="translate(0.000000,80.000000) scale(0.100000,-0.100000)"
fill="#000000" stroke="none">
<path d="M265 566 c-50 -22 -68 -51 -72 -114 -4 -64 8 -95 50 -126 35 -26 98
-27 125 -3 17 16 20 16 25 2 4 -8 13 -15 22 -15 12 0 15 14 15 70 l0 70 -56 0
c-47 0 -55 -3 -52 -17 2 -11 14 -19 31 -21 29 -4 34 -18 14 -46 -24 -33 -97
-21 -115 19 -22 47 -11 116 22 137 22 15 73 8 91 -12 10 -11 29 -20 41 -20 20
0 22 3 15 22 -18 50 -100 78 -156 54z"/>
<path d="M613 564 c-10 -4 -13 -40 -13 -130 l0 -124 25 0 c23 0 25 4 25 44 l0
44 55 4 c69 6 95 27 95 78 0 63 -25 84 -106 87 -38 1 -75 0 -81 -3z m127 -48
c6 -8 10 -25 8 -38 -3 -20 -10 -23 -50 -26 l-48 -3 0 34 c0 18 3 37 7 40 12
13 70 7 83 -7z"/>
<path d="M1760 452 c0 -133 5 -146 61 -140 38 4 50 25 17 30 -21 3 -23 9 -26
66 -2 49 0 64 13 68 19 8 20 34 1 34 -9 0 -16 12 -18 28 -2 19 -9 28 -25 30
-23 3 -23 2 -23 -116z"/>
<path d="M894 500 c-39 -16 -54 -49 -54 -122 0 -66 1 -68 25 -68 24 0 25 2 25
63 0 65 11 87 42 87 13 0 18 8 18 25 0 27 -17 31 -56 15z"/>
<path d="M1010 490 c-22 -16 -25 -27 -25 -80 0 -76 22 -100 90 -100 36 0 48 5
65 28 30 37 24 126 -10 154 -29 24 -88 23 -120 -2z m94 -36 c11 -29 6 -83 -10
-98 -18 -19 -20 -19 -45 -6 -14 8 -19 21 -19 53 0 24 5 48 12 55 17 17 55 15
62 -4z"/>
<path d="M1225 488 c-23 -18 -25 -26 -25 -99 0 -77 1 -79 25 -79 23 0 24 3 27
78 l3 77 30 0 30 0 3 -77 c3 -75 4 -78 27 -78 24 0 25 3 25 68 0 80 8 95 46
90 29 -3 29 -4 34 -78 5 -68 7 -75 28 -78 21 -3 22 0 22 73 0 66 -3 79 -23 99
-22 22 -32 24 -125 24 -86 0 -106 -3 -127 -20z"/>
<path d="M1565 485 c-33 -32 -35 -110 -4 -149 17 -22 28 -26 70 -26 45 0 51 3
69 33 46 75 7 167 -71 167 -29 0 -47 -7 -64 -25z m93 -27 c17 -17 15 -84 -4
-102 -29 -30 -55 -16 -68 36 -13 56 36 102 72 66z"/>
<path d="M2026 485 c-34 -32 -35 -76 -2 -91 21 -10 24 -9 23 5 0 9 3 28 6 44
6 21 13 27 36 27 32 0 41 -14 41 -66 0 -21 -8 -42 -20 -54 -11 -11 -20 -24
-20 -30 0 -19 41 -10 67 16 23 23 25 31 21 81 -4 44 -10 59 -29 74 -35 27 -90
24 -123 -6z"/>
<path d="M2260 503 c-30 -12 -39 -39 -40 -115 0 -76 1 -78 25 -78 23 0 24 3
27 78 l3 77 30 0 30 0 5 -75 c5 -68 7 -75 28 -78 21 -3 22 -1 22 77 0 74 -2
81 -26 100 -26 20 -72 26 -104 14z"/>
<path d="M477 423 c-4 -3 -7 -12 -7 -20 0 -9 15 -13 50 -13 43 0 50 3 50 20 0
17 -7 20 -43 20 -24 0 -47 -3 -50 -7z"/>
</g>
</svg>
