<?xml version="1.0" standalone="no"?>
<!DOCTYPE svg PUBLIC "-//W3C//DTD SVG 20010904//EN"
 "http://www.w3.org/TR/2001/REC-SVG-20010904/DTD/svg10.dtd">
<svg version="1.0" xmlns="http://www.w3.org/2000/svg"
 width="357.000000pt" height="141.000000pt" viewBox="0 0 357.000000 141.000000"
 preserveAspectRatio="xMidYMid meet">

<g transform="translate(0.000000,141.000000) scale(0.100000,-0.100000)"
fill="#000000" stroke="none">
<path d="M538 1187 c-265 -91 -409 -378 -319 -639 23 -66 36 -90 80 -146 101
-130 232 -192 403 -192 248 0 457 176 498 420 33 193 -71 415 -240 512 -124
72 -290 89 -422 45z m140 -59 c4 -81 -31 -230 -78 -324 -63 -129 -186 -250
-303 -299 -37 -15 -38 -15 -27 5 8 15 8 20 -1 18 -17 -4 -41 89 -43 169 0 40
2 73 5 73 3 0 4 11 1 25 -6 32 6 78 18 70 6 -4 10 6 10 22 1 31 23 67 35 55 5
-4 5 1 2 11 -4 10 -2 17 5 17 6 0 9 3 5 6 -7 7 46 64 60 64 5 0 18 12 30 28
26 35 135 90 196 98 26 4 47 10 47 14 0 5 8 7 18 6 13 -2 18 -14 20 -58z m122
46 c3 0 12 -4 20 -7 8 -4 39 -15 67 -25 29 -10 51 -21 48 -24 -3 -2 13 -14 35
-27 21 -12 51 -36 66 -54 14 -18 23 -26 19 -19 -6 11 -3 11 14 1 11 -8 16 -16
11 -19 -5 -3 -5 -11 0 -20 7 -11 10 -12 10 -2 0 7 5 10 10 7 6 -4 8 -15 5 -26
-4 -10 -2 -19 4 -19 5 0 13 -10 16 -22 4 -13 14 -34 23 -48 9 -14 15 -41 14
-60 -2 -27 0 -31 7 -20 8 11 10 -9 10 -70 -1 -63 -3 -77 -10 -55 -7 25 -8 22
-6 -20 1 -56 -11 -117 -25 -126 -5 -3 -10 -15 -11 -27 0 -11 -4 -19 -8 -16 -4
2 -10 -5 -14 -16 -6 -19 -15 -20 -138 -20 l-132 0 45 24 c85 45 144 163 160
319 5 50 8 93 6 95 -2 2 -26 -12 -53 -31 -70 -50 -124 -75 -206 -96 -73 -18
-150 -52 -162 -71 -3 -5 -11 -10 -16 -10 -6 0 -1 13 9 28 48 67 132 315 132
392 0 45 20 101 33 93 7 -4 14 -8 17 -9z m-76 -490 c4 -9 5 -18 4 -19 -26 -21
-92 -55 -107 -55 -37 0 -32 19 15 54 51 39 78 45 88 20z m-192 -139 c-4 -39 0
-49 26 -75 l30 -30 -126 0 -127 1 39 22 c28 16 160 120 161 126 0 1 -1 -19 -3
-44z m473 -185 l30 -6 -32 -11 c-18 -7 -33 -15 -33 -18 0 -3 6 -3 13 1 9 6 8
3 -1 -8 -8 -9 -19 -15 -26 -12 -8 3 -16 -2 -20 -11 -3 -9 -11 -15 -18 -14 -7
1 -31 -6 -52 -15 -21 -10 -47 -15 -58 -13 -10 3 -16 2 -13 -3 9 -15 -28 -20
-104 -15 -93 7 -131 14 -131 24 0 5 -11 6 -25 3 -15 -2 -25 0 -25 7 0 6 -7 11
-15 11 -20 0 -86 37 -108 61 -9 10 -15 17 -12 15 4 -2 18 0 33 4 30 10 551 10
597 0z"/>
<path d="M1411 1104 c-27 -19 -27 -50 -1 -64 41 -22 81 12 60 50 -14 26 -35
31 -59 14z"/>
<path d="M1520 1100 c-11 -11 -20 -24 -20 -29 0 -16 30 -41 49 -41 40 0 57 61
22 80 -26 13 -28 13 -51 -10z"/>
<path d="M1290 915 l0 -195 35 0 35 0 0 195 0 195 -35 0 -35 0 0 -195z"/>
<path d="M1735 993 c-20 -11 -30 -12 -33 -4 -2 6 -19 11 -38 11 l-35 0 3 -137
3 -138 32 -3 31 -3 4 96 c3 87 5 99 27 116 28 23 41 24 67 5 16 -12 20 -29 22
-115 l4 -101 29 0 c29 0 29 0 30 65 1 36 3 70 4 75 1 6 3 19 4 30 1 24 35 60
56 60 8 0 24 -9 35 -20 17 -17 20 -33 20 -116 l0 -95 33 3 32 3 2 75 c2 109
-7 161 -33 187 -30 30 -81 30 -126 -1 l-34 -23 -28 23 c-31 28 -69 30 -111 7z"/>
<path d="M1400 860 l0 -140 35 0 35 0 0 140 0 140 -35 0 -35 0 0 -140z"/>
<path d="M1510 835 l0 -165 -30 0 c-25 0 -30 -4 -30 -24 0 -34 62 -46 99 -18
l26 19 3 177 2 176 -35 0 -35 0 0 -165z"/>
<path d="M2490 735 c0 -48 -2 -55 -20 -55 -15 0 -20 -7 -20 -25 0 -18 5 -25
20 -25 19 0 20 -7 20 -110 l0 -110 30 0 30 0 0 109 c0 106 1 110 23 113 14 2
23 11 25 26 3 18 -1 22 -22 22 -25 0 -26 3 -26 55 0 54 0 55 -30 55 -30 0 -30
-1 -30 -55z"/>
<path d="M1740 674 c-22 -10 -36 -11 -38 -4 -2 5 -18 10 -35 10 l-32 0 3 -190
3 -190 29 0 30 0 0 72 0 71 21 -19 c15 -13 36 -19 70 -19 43 0 53 4 86 38 36
35 38 41 38 100 0 63 -17 100 -56 125 -31 20 -83 22 -119 6z m89 -65 c35 -38
28 -115 -12 -141 -21 -14 -74 -8 -96 10 -32 25 -32 94 0 128 29 31 80 32 108
3z"/>
<path d="M2031 673 c-46 -23 -71 -67 -71 -126 0 -60 20 -99 63 -126 41 -25 77
-27 120 -5 21 12 32 13 35 5 2 -6 17 -11 33 -11 l29 0 0 135 0 135 -29 0 c-16
0 -31 -5 -33 -10 -2 -7 -16 -5 -40 5 -47 19 -65 19 -107 -2z m131 -73 c21 -26
24 -88 5 -114 -8 -11 -31 -20 -59 -23 -40 -5 -47 -2 -66 22 -30 38 -29 89 2
120 13 13 22 26 20 28 -3 3 14 1 38 -3 24 -5 50 -17 60 -30z"/>
<path d="M2372 669 c-19 -17 -23 -18 -28 -5 -3 9 -16 16 -29 16 -23 0 -23 -1
-24 -135 l-2 -135 31 0 30 0 0 73 c0 39 5 89 11 110 9 35 17 41 45 38 16 -2
26 42 11 51 -17 11 -21 10 -45 -13z"/>
<path d="M2725 674 c-19 -10 -31 -11 -33 -5 -2 6 -19 11 -38 11 l-34 0 0 -135
0 -135 35 0 35 0 0 90 c0 77 3 93 20 110 22 22 60 26 78 8 8 -8 12 -47 12
-110 l0 -98 35 0 35 0 0 100 c0 110 -11 145 -51 166 -36 18 -57 18 -94 -2z"/>
<path d="M2995 672 c-56 -26 -77 -62 -76 -128 0 -61 18 -94 66 -124 53 -33
147 -21 184 23 11 15 10 18 -13 27 -21 7 -34 6 -57 -6 -49 -25 -119 8 -119 55
0 7 38 11 108 11 l108 0 2 25 c8 96 -107 162 -203 117z m128 -63 l19 -24 -58
-5 c-33 -3 -69 -3 -81 -1 -20 3 -21 5 -7 25 8 13 12 25 9 27 -2 3 19 5 47 4
41 -1 55 -6 71 -26z"/>
<path d="M3320 673 c-17 -12 -25 -13 -28 -5 -2 7 -17 12 -33 12 l-30 0 2 -135
1 -135 34 0 34 0 0 88 c0 93 14 137 44 137 20 0 40 30 31 45 -9 15 -27 12 -55
-7z"/>
</g>
</svg>
