<?xml version="1.0" standalone="no"?>
<!DOCTYPE svg PUBLIC "-//W3C//DTD SVG 20010904//EN"
 "http://www.w3.org/TR/2001/REC-SVG-20010904/DTD/svg10.dtd">
<svg version="1.0" xmlns="http://www.w3.org/2000/svg"
 width="180.000000pt" height="180.000000pt" viewBox="0 0 180.000000 180.000000"
 preserveAspectRatio="xMidYMid meet">

<g transform="translate(0.000000,180.000000) scale(0.100000,-0.100000)"
fill="#000000" stroke="none">
<path d="M783 1650 c-85 -16 -209 -66 -282 -114 -366 -244 -449 -741 -181
-1088 70 -90 157 -160 265 -213 125 -60 218 -79 364 -73 198 9 351 76 492 217
87 87 146 181 186 296 25 73 27 92 28 230 0 166 -11 216 -70 335 -96 192 -265
333 -465 390 -86 24 -257 34 -337 20z m309 -203 c99 -36 173 -84 237 -154 264
-287 171 -742 -184 -903 -331 -151 -715 48 -791 410 -62 294 137 597 436 665
91 21 217 13 302 -18z"/>
<path d="M785 940 l-120 -120 38 -37 37 -38 83 83 c45 45 87 82 92 82 6 0 46
-36 90 -80 l79 -80 38 37 38 37 -117 118 c-65 65 -122 118 -128 118 -6 0 -64
-54 -130 -120z"/>
</g>
</svg>
