<?xml version="1.0" standalone="no"?>
<!DOCTYPE svg PUBLIC "-//W3C//DTD SVG 20010904//EN"
 "http://www.w3.org/TR/2001/REC-SVG-20010904/DTD/svg10.dtd">
<svg version="1.0" xmlns="http://www.w3.org/2000/svg"
 width="400.000000pt" height="114.000000pt" viewBox="0 0 400.000000 114.000000"
 preserveAspectRatio="xMidYMid meet">

<g transform="translate(0.000000,114.000000) scale(0.100000,-0.100000)"
fill="#000000" stroke="none">
<path d="M384 866 c-91 -29 -173 -114 -204 -209 -18 -58 -9 -163 19 -221 30
-61 87 -117 149 -148 69 -34 197 -33 267 2 192 94 235 349 85 500 -82 81 -205
111 -316 76z m162 -71 c105 -31 168 -115 168 -225 0 -112 -63 -194 -173 -227
-129 -37 -261 45 -292 181 -25 112 48 236 158 270 62 19 79 19 139 1z"/>
<path d="M427 582 c-43 -43 -46 -50 -32 -62 14 -11 21 -8 50 20 l35 34 35 -34
c29 -28 36 -31 50 -20 14 12 11 19 -32 62 -26 26 -50 48 -53 48 -3 0 -27 -22
-53 -48z"/>
<path d="M1942 838 c-7 -7 -12 -21 -12 -33 0 -12 5 -26 12 -33 7 -7 21 -12 33
-12 12 0 26 5 33 12 7 7 12 21 12 33 0 12 -5 26 -12 33 -7 7 -21 12 -33 12
-12 0 -26 -5 -33 -12z"/>
<path d="M2820 630 l0 -220 45 0 c40 0 45 3 45 22 l0 21 24 -22 c52 -49 139
-33 173 32 23 44 23 160 -1 205 -32 62 -113 76 -171 31 l-25 -20 0 85 0 86
-45 0 -45 0 0 -220z m190 5 c18 -22 23 -96 8 -125 -11 -19 -21 -25 -48 -25
-43 0 -63 31 -57 92 6 53 21 73 57 73 15 0 33 -7 40 -15z"/>
<path d="M3530 630 l0 -220 45 0 45 0 0 48 c0 43 13 83 23 72 2 -3 20 -31 40
-62 l37 -58 55 0 55 0 -55 84 c-30 46 -55 87 -55 91 0 4 23 36 51 71 l51 64
-55 0 -54 0 -44 -62 -44 -63 -3 128 -3 127 -44 0 -45 0 0 -220z"/>
<path d="M1064 716 c-41 -18 -64 -52 -64 -93 0 -42 26 -69 82 -83 93 -25 120
-55 66 -74 -23 -8 -32 -6 -51 12 -27 25 -107 32 -107 9 0 -44 70 -87 140 -87
83 0 140 44 140 107 0 42 -26 69 -82 83 -85 22 -93 26 -96 43 -2 10 6 21 22
29 23 10 29 8 49 -10 15 -14 36 -22 60 -22 46 0 48 17 9 61 -24 27 -37 33 -83
36 -33 2 -66 -2 -85 -11z"/>
<path d="M1470 723 c-8 -3 -25 -15 -37 -26 l-23 -20 0 21 c0 19 -5 22 -45 22
l-45 0 0 -210 0 -210 45 0 45 0 0 77 0 76 23 -21 c49 -46 133 -35 168 22 25
41 26 162 2 213 -22 48 -84 74 -133 56z m41 -89 c7 -9 13 -40 13 -69 0 -61
-15 -85 -54 -85 -39 0 -55 25 -55 85 0 29 6 59 14 68 17 22 65 22 82 1z"/>
<path d="M1795 705 c-23 -22 -25 -23 -25 -5 0 17 -7 20 -50 20 l-50 0 0 -155
0 -155 50 0 50 0 0 100 c0 113 14 140 70 140 28 0 30 2 30 40 0 36 -2 40 -25
40 -14 0 -37 -11 -50 -25z"/>
<path d="M2216 705 c-34 -23 -36 -23 -36 -5 0 17 -7 20 -45 20 l-45 0 0 -155
0 -155 50 0 50 0 0 104 c0 110 9 136 50 136 41 0 50 -26 50 -136 l0 -104 50 0
50 0 0 113 c0 87 -4 120 -18 147 -31 63 -94 77 -156 35z"/>
<path d="M2513 715 c-42 -18 -63 -53 -70 -117 -7 -67 9 -127 43 -159 33 -31
111 -34 143 -5 21 19 21 19 21 -15 0 -19 -5 -40 -12 -47 -17 -17 -83 -15 -98
3 -13 15 -100 22 -100 8 0 -26 43 -72 76 -83 50 -17 150 -7 183 18 46 34 51
55 51 235 l0 167 -50 0 c-45 0 -50 -2 -50 -22 0 -20 -1 -20 -12 -5 -13 16 -59
37 -81 37 -7 -1 -26 -7 -44 -15z m127 -84 c16 -31 12 -112 -7 -133 -40 -44
-93 -6 -93 67 0 22 7 51 16 63 20 28 69 30 84 3z"/>
<path d="M3251 712 c-54 -27 -75 -63 -79 -135 -4 -74 16 -120 67 -154 68 -46
176 -21 213 48 27 50 25 146 -5 190 -27 41 -79 69 -127 69 -19 0 -50 -8 -69
-18z m101 -69 c40 -46 28 -158 -18 -169 -43 -11 -64 19 -64 89 0 85 42 125 82
80z"/>
<path d="M1930 565 l0 -155 45 0 45 0 0 155 0 155 -45 0 -45 0 0 -155z"/>
</g>
</svg>
