<?xml version="1.0" standalone="no"?>
<!DOCTYPE svg PUBLIC "-//W3C//DTD SVG 20010904//EN"
 "http://www.w3.org/TR/2001/REC-SVG-20010904/DTD/svg10.dtd">
<svg version="1.0" xmlns="http://www.w3.org/2000/svg"
 width="200.000000pt" height="200.000000pt" viewBox="0 0 200.000000 200.000000"
 preserveAspectRatio="xMidYMid meet">

<g transform="translate(0.000000,200.000000) scale(0.100000,-0.100000)"
fill="#000000" stroke="none">
<path d="M640 1781 c0 -5 10 -11 23 -13 20 -3 22 -9 25 -70 4 -90 22 -88 22 2
0 68 1 70 26 70 14 0 23 4 19 10 -8 13 -115 13 -115 1z"/>
<path d="M770 1685 c0 -30 5 -55 10 -55 6 0 10 25 10 55 0 30 -4 55 -10 55 -5
0 -10 -25 -10 -55z"/>
<path d="M840 1705 c-8 -62 -3 -75 31 -75 16 0 29 5 29 10 0 6 -11 10 -24 10
-23 0 -25 5 -28 48 l-3 47 -5 -40z"/>
<path d="M930 1686 c0 -55 1 -56 29 -56 39 0 50 17 42 65 -6 36 -9 40 -39 43
l-32 3 0 -55z m45 33 c10 -15 -1 -23 -20 -15 -9 3 -13 10 -10 16 8 13 22 13
30 -1z m13 -56 c2 -8 -5 -13 -17 -13 -21 0 -35 13 -24 24 10 10 36 3 41 -11z"/>
<path d="M1040 1698 c0 -58 10 -70 51 -66 31 3 35 7 43 46 6 30 6 46 -2 54 -9
9 -12 3 -12 -24 0 -40 -22 -70 -45 -62 -10 4 -15 21 -15 50 0 24 -4 44 -10 44
-5 0 -10 -19 -10 -42z"/>
<path d="M1170 1685 c0 -30 5 -55 10 -55 6 0 10 9 10 20 0 26 15 25 34 -2 9
-12 19 -19 22 -15 4 4 1 13 -5 21 -9 11 -9 19 0 34 19 31 5 52 -36 52 l-35 0
0 -55z m56 34 c10 -17 -13 -36 -27 -22 -12 12 -4 33 11 33 5 0 12 -5 16 -11z"/>
<path d="M1286 1718 c-9 -12 -16 -28 -16 -35 0 -25 39 -53 75 -53 32 0 35 2
35 30 0 17 -4 30 -10 30 -5 0 -10 -12 -10 -26 0 -20 -4 -25 -16 -20 -9 3 -20
6 -24 6 -5 0 -14 9 -20 21 -17 30 14 63 52 55 16 -3 28 -1 28 4 0 6 -18 10
-39 10 -30 0 -44 -6 -55 -22z"/>
<path d="M487 1498 c5 -67 26 -98 64 -98 38 0 59 35 59 100 0 33 -4 60 -10 60
-6 0 -10 -27 -10 -60 0 -55 -2 -62 -25 -72 -39 -18 -55 3 -55 73 0 44 -4 59
-14 59 -11 0 -13 -14 -9 -62z"/>
<path d="M647 1513 c-11 -10 -8 -103 3 -103 6 0 10 13 10 29 0 43 11 44 40 5
37 -49 50 -44 50 21 0 30 -4 55 -10 55 -5 0 -10 -17 -10 -37 l-1 -38 -33 38
c-35 39 -39 41 -49 30z"/>
<path d="M790 1466 c0 -31 5 -56 10 -56 6 0 10 22 10 49 0 28 -4 53 -10 56 -6
4 -10 -15 -10 -49z"/>
<path d="M840 1511 c0 -17 41 -101 49 -101 8 0 17 19 48 98 3 6 0 12 -5 12 -6
0 -16 -16 -23 -35 -7 -19 -16 -35 -19 -35 -3 0 -12 16 -19 35 -11 32 -31 48
-31 26z"/>
<path d="M970 1465 l0 -55 38 1 c30 2 32 3 10 6 -35 5 -39 40 -5 46 l22 4 -22
2 c-32 2 -30 31 2 31 14 0 25 5 25 10 0 6 -16 10 -35 10 l-35 0 0 -55z"/>
<path d="M1077 1514 c-11 -11 -8 -104 3 -104 6 0 10 9 10 20 0 26 14 25 33 -2
8 -13 18 -20 23 -15 4 4 2 13 -4 19 -8 8 -8 15 -1 24 6 7 9 23 7 36 -2 17 -10
24 -33 26 -17 2 -34 0 -38 -4z m53 -29 c0 -8 -9 -15 -20 -15 -11 0 -20 7 -20
15 0 8 9 15 20 15 11 0 20 -7 20 -15z"/>
<path d="M1187 1513 c-16 -15 -5 -44 23 -58 35 -18 30 -40 -6 -31 -27 7 -33
-8 -8 -18 23 -9 31 -8 48 9 19 20 10 44 -20 56 -34 12 -30 29 7 29 17 0 28 4
24 10 -7 11 -58 14 -68 3z"/>
<path d="M1290 1465 c0 -30 5 -55 10 -55 6 0 10 25 10 55 0 30 -4 55 -10 55
-5 0 -10 -25 -10 -55z"/>
<path d="M1340 1510 c0 -5 7 -10 15 -10 11 0 15 -12 15 -45 0 -25 5 -45 10
-45 6 0 10 20 10 45 0 38 3 45 20 45 11 0 20 5 20 10 0 6 -20 10 -45 10 -25 0
-45 -4 -45 -10z"/>
<path d="M1440 1515 c0 -2 9 -19 20 -37 11 -18 20 -41 20 -51 0 -10 5 -15 10
-12 6 4 8 10 6 14 -3 4 4 25 15 45 24 44 18 59 -9 26 l-19 -24 -12 22 c-10 19
-31 31 -31 17z"/>
<path d="M987 1031 c-19 -33 -21 -41 -8 -41 5 0 11 9 14 20 8 29 24 24 36 -11
8 -24 8 -36 -1 -47 -11 -13 -14 -11 -19 9 l-7 24 -1 -25 c-2 -24 -2 -24 -16
-6 -13 17 -15 18 -15 3 0 -9 8 -22 19 -28 14 -10 17 -21 13 -54 -2 -25 1 -52
9 -66 9 -15 14 -59 14 -121 0 -63 4 -101 12 -109 19 -19 24 -6 11 27 -7 19 -8
59 -3 117 8 97 20 109 65 62 17 -18 34 -25 62 -25 42 0 45 5 23 37 -11 15 -26
21 -61 21 -56 2 -66 9 -39 28 12 9 31 12 52 8 33 -6 95 15 109 37 7 13 -14 29
-36 28 -10 0 -11 -2 -2 -6 17 -7 15 -30 -4 -37 -24 -9 -76 -7 -70 3 3 5 14 8
24 6 9 -1 11 0 4 2 -7 3 -10 9 -7 14 11 16 -17 9 -39 -10 -68 -62 -96 -82 -96
-69 0 20 29 58 44 58 14 0 46 31 46 45 0 5 -7 0 -16 -11 -15 -19 -16 -19 -9 0
6 19 5 19 -15 1 -30 -27 -27 5 3 33 28 27 34 27 40 5 3 -11 5 -7 6 10 0 15 -4
27 -10 27 -19 0 -69 -58 -69 -80 0 -27 -17 -60 -31 -60 -14 0 -3 66 16 93 8
12 15 30 15 40 0 20 -30 77 -40 77 -3 0 -13 -13 -23 -29z m191 -233 c18 -18
14 -28 -10 -28 -28 0 -55 16 -45 26 3 4 13 1 22 -6 13 -11 14 -10 9 4 -7 19 7
21 24 4z"/>
<path d="M875 973 c8 -32 34 -65 46 -58 11 7 49 -44 49 -66 0 -18 -2 -18 -35
3 -19 13 -35 28 -35 34 0 6 -18 19 -39 29 -33 14 -45 15 -75 5 -20 -6 -36 -15
-36 -19 0 -4 13 -19 28 -34 29 -28 69 -35 102 -17 13 7 26 4 51 -13 44 -30 51
-51 12 -36 -46 18 -63 19 -63 3 0 -8 5 -14 11 -14 5 0 7 -4 4 -10 -3 -5 -19
-10 -36 -10 -35 0 -39 22 -6 38 15 7 17 11 6 11 -8 1 -26 -9 -39 -21 -22 -21
-22 -22 -4 -29 33 -13 79 -10 103 7 21 15 24 15 42 -2 17 -17 18 -27 9 -84 -5
-36 -12 -78 -16 -94 -5 -22 -4 -28 7 -24 19 6 28 64 28 183 1 83 -2 106 -19
133 -11 18 -20 41 -20 52 0 24 -38 60 -63 60 -16 0 -18 -5 -12 -27z m50 -6
c10 -8 15 -19 11 -25 -12 -20 -32 -13 -44 13 -13 29 1 34 33 12z m-50 -76 c-2
-4 -19 -6 -37 -5 -32 3 -32 3 -4 -4 32 -8 48 -32 21 -32 -22 0 -85 30 -85 40
0 16 54 27 82 17 16 -5 26 -12 23 -16z"/>
<path d="M835 950 c3 -5 8 -10 11 -10 2 0 4 5 4 10 0 6 -5 10 -11 10 -5 0 -7
-4 -4 -10z"/>
<path d="M1170 950 c0 -5 5 -10 10 -10 6 0 10 5 10 10 0 6 -4 10 -10 10 -5 0
-10 -4 -10 -10z"/>
<path d="M811 708 c-8 -18 -14 -50 -12 -70 2 -33 0 -38 -19 -38 -12 0 -18 -4
-15 -10 8 -13 142 -13 150 0 3 6 -5 10 -18 10 -19 0 -27 7 -31 27 -7 25 14 56
22 33 9 -25 22 -6 22 30 0 22 -5 40 -11 40 -6 0 -8 -8 -4 -19 3 -11 2 -22 -4
-25 -16 -10 -40 5 -43 27 -5 32 -22 30 -37 -5z m33 -24 c3 -9 6 -31 6 -50 0
-27 -4 -34 -20 -34 -21 0 -26 16 -10 40 5 9 5 19 -1 27 -11 12 -4 33 11 33 4
0 11 -7 14 -16z"/>
<path d="M1116 706 c-3 -14 -13 -31 -21 -40 -14 -13 -13 -16 6 -26 17 -10 20
-9 19 7 -4 33 0 43 15 43 17 0 20 -16 5 -25 -6 -4 -6 -15 0 -31 13 -33 13 -34
-4 -34 -8 0 -17 6 -19 13 -4 9 -8 8 -16 -3 -6 -8 -11 -18 -11 -21 0 -10 149
-9 155 1 4 6 -10 10 -34 10 -40 0 -55 15 -26 26 22 9 19 45 -5 51 -11 3 -23
16 -26 29 -8 31 -30 31 -38 0z m64 -63 c0 -8 -5 -13 -12 -11 -18 6 -21 25 -3
25 8 0 15 -7 15 -14z"/>
<path d="M810 553 c14 -3 37 -16 52 -30 15 -15 50 -31 84 -39 71 -16 131 -5
189 34 22 15 51 30 65 33 23 6 22 7 -8 8 -21 1 -46 -9 -72 -28 -23 -16 -59
-32 -81 -36 -53 -9 -132 11 -160 41 -16 17 -32 24 -58 23 -28 -1 -30 -3 -11
-6z"/>
<path d="M918 540 c39 -32 104 -36 159 -9 57 27 43 36 -22 14 -47 -15 -109
-12 -121 6 -3 5 -13 9 -22 9 -14 -1 -13 -4 6 -20z"/>
</g>
</svg>
