<?xml version="1.0" encoding="utf-8"?>
<!-- Generator: Adobe Illustrator 25.0.1, SVG Export Plug-In . SVG Version: 6.00 Build 0)  -->
<svg version="1.0" id="Layer_1" xmlns="http://www.w3.org/2000/svg" xmlns:xlink="http://www.w3.org/1999/xlink" x="0px" y="0px"
	 viewBox="0 0 257.9 178.2" style="enable-background:new 0 0 257.9 178.2;" xml:space="preserve">
<style type="text/css">
	.st0{clip-path:url(#SVGID_2_);}
	.st1{fill:#093158;}
	.st2{fill:#A6700E;}
</style>
<g id="layer1">
	<g id="g812">
		<g>
			<defs>
				<rect id="SVGID_1_" x="30" y="60.9" width="197.9" height="58.5"/>
			</defs>
			<clipPath id="SVGID_2_">
				<use xlink:href="#SVGID_1_"  style="overflow:visible;"/>
			</clipPath>
			<g class="st0">
				<g id="g814">
					<g id="g820">
						<path id="path822" class="st1" d="M127.6,99h-0.2c0,0-0.1,0-0.1,0h-0.1c0,0-0.2,0-0.2,0c-0.1,0-0.2,0-0.3,0
							c-0.1,0-0.2,0-0.4,0c-0.1,0-0.3,0-0.4,0c-0.1,0-0.3,0-0.4,0c-0.1,0-0.2,0-0.3,0c-0.1,0-0.1,0-0.2,0s-0.1,0-0.1,0
							c0,0-0.1,0-0.1,0h-0.1c0,0,0,0-0.1-0.1c-0.1,0-0.1,0-0.2,0.1c-0.1,0.2-0.3,0.4-0.5,0.6c-0.1,0.1-0.2,0.2-0.3,0.3
							c-0.1,0.1-0.1,0.2-0.2,0.3c0,0.1-0.1,0.2-0.2,0.2s0-0.1-0.1,0c-0.2,0.2-0.3,0.3-0.5,0.4c-0.1,0.1-0.3,0.1-0.4,0.2
							c0,0.1-0.1,0.1-0.1,0.2c-0.2,0.1-0.3,0.3-0.5,0.4c-0.1,0-0.2,0.1-0.3,0.1l-0.2,0.1c-0.1,0-0.7,0.1-0.8,0.1s-0.3,0.1-0.4,0.1
							s-0.1,0.1-0.2,0c-0.2,0-0.4,0-0.6,0.1c-0.2,0.1-0.4,0.1-0.5,0.2c-0.1,0-0.2,0.1-0.4,0.1c-0.1,0-0.6,0-0.7,0h-0.2
							c-0.1,0-0.1,0-0.2,0c-0.2,0-0.3,0-0.5,0c-0.1,0-0.2,0-0.2,0c-0.1,0-0.2,0-0.3-0.1c-0.1,0-0.3,0-0.4-0.1c-0.1,0-0.1,0-0.2,0
							s-0.1-0.1-0.1-0.1H115h-0.3c-0.1,0-0.1-0.1-0.2-0.1c-0.1,0-0.1,0-0.2,0c-0.1,0-0.2,0-0.3,0c-0.1-0.1-0.3-0.1-0.4-0.2
							c-0.1,0-0.3-0.2-0.5-0.2s-0.2,0-0.3-0.1c0,0-0.1-0.1-0.2-0.1c0,0-0.6-0.4-0.8-0.5c-0.1,0-0.2-0.1-0.3-0.2l-0.3-0.3
							c-0.1-0.1-0.2-0.2-0.3-0.2c-0.1-0.1-0.1,0-0.1-0.1s0-0.1-0.1-0.2s-0.2-0.2-0.3-0.3c-0.1-0.1-0.1-0.2-0.2-0.3
							c0-0.1-0.1-0.1-0.1-0.1c0,0-0.1,0-0.1-0.1s0,0,0-0.1s0,0,0-0.1s0-0.1-0.1-0.1c-0.1,0-0.2,0.1-0.3,0.1c-0.1,0-0.2,0-0.3,0
							s-0.2,0-0.2,0s-0.1,0-0.1,0c-0.1,0-0.1,0-0.2,0c0,0-0.1,0-0.2,0c0,0-0.1,0-0.1,0l-0.1-0.1c-0.1,0-0.2-0.1-0.3-0.1
							s-0.1,0-0.2,0c-0.1,0-0.2,0-0.3,0c-0.1,0-0.1,0-0.2,0.1c0,0-0.1,0.1-0.1,0.1c0,0,0,0-0.1,0s-0.2,0-0.2,0c-0.1,0-0.1,0-0.2,0
							c-0.1,0-0.2-0.1-0.3,0s0,0.3,0.1,0.3s0.1,0.1,0.3,0.2c0.1,0.1,0.2,0.2,0.3,0.2c0.1,0.1,0.1,0.2,0.2,0.1s0.2,0,0.3,0
							c0.1,0,0.1,0,0.2-0.1c0.1,0,0.2,0,0.3,0c0.2,0,0.3,0,0.3,0s0.1,0.1,0.2,0.1s0.1,0,0.1,0h0.3c0.1,0,0.1,0,0.2,0
							c0.1,0,0,0,0.1,0.1s0.1,0.2,0.2,0.2c0.1,0,0.1,0.1,0.1,0.2c0,0.1,0.1,0.2,0.1,0.3c0.1,0.1,0.2,0.2,0.2,0.3
							c0.1,0.1,0.1,0.2,0.2,0.3c0.1,0,0.1,0,0.2,0c0.1,0,0.1,0.1,0.2,0.1c0.1,0,0.1,0.1,0.2,0.1l0.1,0.1l0.1,0.1l0.2,0.1l0.1,0.1
							h0.2c0.1,0,0.2,0.1,0.3,0.2c0,0,0,0.1,0.1,0.2s0.2,0.1,0.3,0.1s0.1,0,0.2,0s0.2,0.1,0.2,0.1s0.1,0.1,0.2,0.1s0.6,0.2,0.7,0.2
							s0.4,0.1,0.5,0.1s0.1,0,0.2,0.1s0.3,0,0.3,0c0.1,0,0.2,0,0.3,0c0.1,0,0.1,0.1,0.2,0.1c0.1,0,0.5,0.1,0.6,0.1s0.4,0,0.5,0
							c0.1,0,0.3,0,0.4,0c0,0,0.1,0.1,0.1,0.1h0.3c0.1,0,0.3,0,0.3,0c0.1,0,0.2,0,0.3,0c0.1,0,0.1-0.1,0.2-0.1c0.1-0.1,0.1,0,0.2,0
							l0.9-0.1l0.4-0.1c0.1,0,0.2-0.1,0.2-0.1s0,0,0.1,0s0.3-0.1,0.5-0.1c0.1,0,0.2,0,0.3-0.1c0.1,0,0.1-0.1,0.2-0.1s0.1,0,0.1,0
							c0.2,0,0.5-0.1,0.7-0.2c0.1-0.1,0.3-0.1,0.4-0.2c0.1-0.1,0.3-0.2,0.4-0.2l0.4-0.2c0.1-0.1,0.2-0.1,0.3-0.2
							c0.1-0.1,0.2-0.1,0.3-0.2c0.1-0.1,0.2-0.1,0.2-0.2c0.1-0.1,0.2-0.2,0.4-0.3c0.1-0.1,0.2-0.2,0.2-0.2s0.2-0.1,0.2-0.2
							c0,0,0.1-0.1,0.1-0.1c0.1,0,0.1-0.1,0.2-0.2c0-0.1,0.2-0.1,0.2-0.2c0.1-0.1,0.1-0.2,0.2-0.3c0-0.1,0,0,0.1,0s0.3,0,0.3,0
							c0.1,0,0.1,0,0.2,0c0,0,0.1,0,0.1,0c0.2,0,0.4,0,0.6,0c0.1,0,0.2,0,0.3,0c0.1,0,0.2,0.1,0.2,0.1c0,0,0.1,0,0.2,0
							c0.1,0,0.1,0,0.2-0.1c0-0.1,0.2-0.2,0.2-0.2c0-0.1,0.1-0.1,0.2-0.2c0,0,0.1-0.1,0.1-0.1c0,0,0-0.1,0.1-0.1s0-0.1,0-0.1
							S127.6,99,127.6,99"/>
					</g>
					<g id="g824">
						<path id="path826" class="st1" d="M116.6,100.3c-0.1,0-0.2,0-0.3-0.1c-0.1,0-0.1,0-0.2,0c-0.1,0-0.1,0-0.1-0.1
							c-0.1,0-0.1,0-0.2,0c-0.1,0-0.1,0-0.1,0c-0.1,0-0.2,0-0.2,0c-0.1,0-0.1,0-0.2,0s-0.2,0-0.3,0s0,0-0.1-0.1s-0.1-0.1-0.2-0.1
							s0,0-0.1-0.1s-0.1,0-0.2,0s-0.1-0.1-0.1-0.1s0-0.1-0.2-0.1c-0.1,0-0.1-0.1-0.2-0.1c-0.1,0-0.1,0-0.1-0.1
							c0-0.1-0.1-0.1-0.1-0.2c-0.1-0.1,0-0.1-0.2-0.2s-0.1-0.1-0.2-0.1c-0.1,0-0.2,0-0.2,0c-0.1,0-0.1,0.1-0.2,0c-0.1,0-0.2,0-0.2,0
							c-0.1,0-0.1,0-0.2,0c-0.2,0-0.2,0-0.2-0.1c0,0-0.1-0.1-0.1,0c0,0,0,0,0,0c0,0.1,0.1,0.1,0.2,0.2c0.1,0.1,0.1,0.1,0.2,0.1
							c0.1,0.1,0.2,0.2,0.3,0.3c0.1,0.1,0.2,0.1,0.3,0.2c0.1,0.1,0.3,0.3,0.4,0.3s0.2,0.2,0.3,0.2s0.5,0.3,0.5,0.3
							c0.1,0,0.2,0,0.2,0c0.1,0,0.2,0.1,0.2,0.2c0.1,0,0.3,0.1,0.4,0.1c0.1,0,0.2,0,0.3,0.1c0,0,0.1,0.1,0.2,0.1s0.2,0.1,0.3,0.1
							c0.1,0,0.2,0,0.3,0c0.1,0,0.3,0,0.4,0.1c0.1,0,0.2,0.1,0.2,0s0.1,0,0.3,0h0.4c0.1,0,0.2,0,0.2,0l0.2-0.1c0,0,0,0.1,0.1,0.1
							c0.1,0,0.3,0,0.4,0l0.3-0.1c0,0,0.1,0,0.1,0c0.1,0,0.1,0,0.2,0c0.1,0,0.2-0.1,0.3-0.1c0.1,0,0.1,0,0.2-0.1h0.1
							c0.1,0,0.2-0.1,0.3-0.1c0.1,0,0.2-0.1,0.3-0.1c0,0,0.1,0,0.2,0c0,0,0.1,0,0.1-0.1c0.1,0,0.1,0,0.2,0c0.1,0,0,0,0.2-0.1
							l0.2-0.1c0,0,0.2-0.1,0.2-0.2h0.1l0.1-0.1l0.1-0.1c0.1,0,0.1,0,0.2-0.1c0.1,0,0.2-0.1,0.2-0.1c0.1,0,0.2-0.1,0.3-0.1
							c0.1-0.1,0.1-0.1,0.1-0.1s0,0.1,0.1,0.1c0.1,0,0.2-0.1,0.2-0.1c0.1-0.1,0.1-0.1,0.1-0.2s0.1,0,0.1-0.1c0,0,0.1-0.1,0.1-0.1
							c0,0,0-0.1,0.1-0.1c0,0,0.1-0.1,0.1-0.2c0-0.1,0-0.1-0.1-0.1c0,0-0.1,0-0.1,0c0,0,0,0-0.1,0c0,0-0.1,0-0.1,0
							c-0.1,0-0.1,0.1-0.2,0.1c-0.1,0-0.1,0-0.1,0s-0.1,0-0.1,0c0,0,0,0-0.1,0c-0.1,0-0.2,0-0.2,0c-0.1,0-0.1,0.1-0.2,0.1
							c-0.1,0.1-0.2,0.1-0.4,0.1c-0.1,0-0.2,0.1-0.3,0.1c-0.1,0-0.2,0.1-0.3,0.2c0,0.1-0.1,0.1-0.2,0.1c-0.1,0-0.2,0.1-0.3,0.2
							c-0.1,0,0,0.1-0.1,0s-0.2-0.1-0.4,0l-0.3,0.2c0,0-0.1,0-0.1,0c0,0-0.1,0-0.1,0s-0.1,0.1-0.2,0.1c-0.1,0-0.2,0-0.2,0
							c-0.1,0-0.2,0.1-0.4,0.1c-0.1,0.1-0.3,0-0.3,0c-0.1,0-0.2,0.1-0.3,0.1c-0.1,0-0.2,0-0.2,0c-0.1,0-0.2,0-0.4,0h-0.3
							c-0.1,0-0.1,0-0.2,0s-0.1,0-0.2,0"/>
					</g>
					<g id="g828">
						<path id="path830" class="st1" d="M107,98c0.1,0,0.1,0,0.2,0h0.2c0.1,0,0.4,0,0.4,0c0,0,0.1,0,0.1,0.1c0.1,0,0.1,0,0.2,0
							c0.1,0,0.2,0,0.2,0h0.2c0.1,0,0.2-0.1,0.2,0s0.1,0,0.1,0c0,0,0.1,0,0.1,0c0,0,0,0,0,0c0,0,0.2,0,0.3,0c0.1,0,0.2,0,0.3,0
							l0.1,0.1c0,0,0.1,0,0.1,0c0,0,0.1,0,0.1,0c0.1,0,0.1,0,0.2,0c0.2,0,0.3,0,0.5,0c0.1,0,0.1,0,0.2,0c0.2,0,0.3,0,0.5,0
							c0,0,0.1,0.1,0.2,0.1c0.3,0,0.5,0,0.8,0c0.1,0,0,0,0.1,0c0.1,0,0.1,0,0.2,0c0.1,0,0.3-0.1,0.4-0.1s0.1,0,0.1,0s0,0,0-0.1
							s0-0.1,0-0.1s0.1-0.1,0.1-0.1c0-0.1,0-0.1,0.1-0.2c0-0.1,0,0,0.1-0.1c0,0,0.1-0.1,0-0.1s-0.1-0.1-0.1,0l0,0l-0.2,0.1
							c-0.1,0-0.2,0-0.3,0c-0.1,0-0.2,0-0.3,0c-0.1,0-0.9,0-1,0s0,0-0.1,0.1s-0.1,0-0.1-0.1s-0.2,0-0.3,0c-0.1,0-0.2,0-0.3,0
							c-0.1,0-0.1,0-0.1,0s0-0.1-0.1-0.2c0-0.1,0-0.2,0-0.2c0-0.1,0-0.1,0-0.2c0-0.1,0-0.2-0.1-0.2c0-0.1,0-0.1,0-0.2
							c0-0.1,0-0.1,0-0.2c0-0.1,0-0.1-0.1-0.1c0,0,0-0.1-0.1-0.1c0,0,0-0.1,0-0.2c0-0.1,0-0.2,0-0.3c0-0.1-0.1-0.1-0.1-0.2
							c0-0.1,0-0.1,0-0.2c0-0.1,0-0.1,0-0.2s0-0.1,0.1-0.1s0-0.1,0-0.1c0,0,0.1-0.1,0.1-0.1c0.1-0.1,0.1-0.1,0.1-0.2s0.1-0.1,0.2,0
							c0.1,0,0.3,0,0.4,0c0.1,0,0.1,0,0.1,0s0.1-0.1,0.2-0.1s0.2-0.1,0.2-0.2c0.1-0.1,0.1-0.2,0.2-0.2c0.1-0.1,0.1,0,0,0.1
							s0,0.1,0,0.2s0,0.2,0,0.3s0,0.2,0,0.2s-0.1,0-0.2,0s-0.1,0-0.2,0s-0.1,0.1-0.1,0.1s0,0.1,0,0.1s0.1,0,0,0.1
							c0,0.1,0,0.1,0.1,0.2c0,0.1,0.1,0,0.2,0h0.2c0.1,0,0,0,0,0.1s0,0,0,0.1c0,0.1,0,0.1,0.1,0.1c0.1,0,0.2,0.1,0.3,0.1
							c0.1,0,0.1-0.1,0.1-0.2c0-0.1,0-0.1,0-0.2c0-0.1,0-0.1,0-0.2c0-0.1,0-0.2,0-0.3c0-0.1,0-0.2,0-0.3c0-0.1,0-0.1,0-0.2
							c0,0,0-0.1,0-0.1s0-0.1,0-0.1s0-0.2,0-0.3c0-0.1,0-0.2,0-0.2c0-0.1,0-0.1,0-0.2c0,0,0-0.1,0-0.2c0-0.1,0-0.2,0-0.3
							c0-0.1,0-0.2,0-0.3c0,0,0-0.1,0-0.1s0.1-0.1,0.1-0.1s0.1,0,0.1,0s0.1-0.1,0.1-0.1s0.1-0.1,0.1-0.2s0-0.3,0-0.3
							c0-0.1,0-0.1-0.1-0.2c-0.1,0-0.1,0-0.2,0c-0.1,0-0.1,0-0.1,0s-0.1,0-0.1,0s-0.1,0-0.1,0l-0.1-0.1c-0.1,0-0.1,0-0.2,0h-0.1
							l-0.2,0.1c-0.1,0-0.1,0.1-0.1,0.2s0,0.1,0,0.1s0,0.1,0,0.1s0,0.1,0,0.1s0,0.1,0,0.1s0,0.1,0,0.2s0.1,0,0.1,0.1
							c0,0,0.1,0.1,0.2,0.1c0.1,0,0.1,0,0.2,0c0.1,0,0,0,0,0.1s0,0-0.1,0.1s0,0,0,0.1s0.1,0.1,0,0.1s0,0,0,0.1s0,0.1,0,0.1
							s0,0-0.1,0s-0.1,0.1-0.1,0.1s-0.1,0-0.2,0.1s-0.1,0.1-0.1,0.2s-0.1,0.1-0.2,0.1c-0.1,0-0.1,0-0.2,0c-0.1,0-0.2,0.1-0.3,0.1
							c-0.1,0-0.1,0-0.2,0c0,0,0,0,0,0c0,0,0-0.1,0-0.2s-0.1-0.1-0.1,0s-0.1,0-0.1,0s-0.1-0.1-0.1-0.1s-0.1,0-0.2,0
							s-0.2-0.1-0.3-0.2c-0.1-0.1-0.2-0.2-0.3-0.3c-0.1-0.1-0.2-0.1-0.2-0.2c-0.1,0,0-0.2,0.1-0.2c0-0.1,0.1-0.1,0.1-0.2
							c0-0.1,0-0.2,0-0.2c0-0.1,0-0.1,0-0.1s0-0.1,0.1-0.1s0-0.1,0-0.1s-0.1,0,0-0.1c0,0,0-0.1,0-0.2c0-0.1,0-0.1,0-0.1
							c0-0.1,0-0.1,0-0.2c0,0-0.1,0-0.1-0.1c0,0-0.1-0.1-0.1-0.1c0,0-0.1,0-0.1,0c0,0,0-0.1,0-0.1s-0.1-0.1-0.2-0.1
							s-0.3,0.1-0.3,0.1c-0.1,0-0.3,0.1-0.4,0.2c-0.1,0.1-0.2,0.2-0.2,0.4c0,0.1,0,0.2,0,0.3s0,0.1,0.1,0.2s0,0.1,0.1,0.1
							s0,0.1,0,0.1c0,0,0,0.1,0,0.1c0,0-0.1,0-0.1,0.1s-0.1,0-0.2,0c-0.1,0-0.1,0.1-0.1,0.1c0,0.1,0,0,0,0.1s-0.1,0-0.1,0.1
							c-0.1,0.1-0.1,0.1-0.2,0.2c-0.1,0.1-0.1,0.1-0.1,0.2c0,0.1,0,0.1-0.1,0.2s0,0.1-0.1,0.1c0,0-0.1,0.1-0.1,0.1
							c0,0.1,0,0.1-0.1,0.2c0,0.1-0.1,0.1-0.1,0.2c0,0,0,0.1,0,0.2s0.1,0,0.1,0.1s0,0-0.1,0s0,0.1,0,0.1s0,0.1,0.1,0.1
							c0,0,0,0.1,0,0.1c0,0,0,0.1,0.1,0.2c0.1,0.1,0.2,0.2,0.3,0.4c0,0.1,0,0.2,0,0.3c0,0.1,0,0.2-0.1,0.3c0,0.2-0.1,0.4-0.1,0.6
							c0,0.1,0,0.3,0,0.4c0,0.2,0,0.4-0.1,0.7c0,0.2,0,0.1,0.2,0.3c-0.1,0-0.2,0-0.3,0c-0.1,0-0.3,0-0.3,0s-0.2-0.1-0.3-0.1
							c-0.1,0-0.2,0-0.4,0l-0.3-0.1l-0.2,0.1l-0.1-0.1c-0.1-0.1-0.1,0.1-0.1,0.2s0.4,0.3,0.4,0.7c0.1,0,0.3,0,0.4,0
							c0.1,0,0.2,0,0.2,0c0.1,0,0.2,0,0.3,0s0.1,0,0.2,0 M111.9,91.8c0,0-0.1,0-0.2,0c0,0-0.1,0,0-0.1s0,0,0-0.1s0-0.1,0-0.1
							s0-0.1,0.1-0.1h0.1c0.1,0,0.1,0,0.2,0c0,0,0.1,0,0.1,0c0.1,0,0,0.1,0.1,0.1s0.1,0,0.1,0.1s0,0.1,0,0.1s0,0-0.1,0s0,0-0.1,0
							S112.1,91.8,111.9,91.8 M108.7,91.2C108.7,91.1,108.7,91.1,108.7,91.2c0-0.1,0.1-0.1,0-0.2s0-0.1,0-0.1s0,0,0-0.1s0,0,0.1,0
							c0,0,0.1,0,0.1,0c0.1,0,0.1,0,0.2,0c0.1,0,0.1,0,0.1,0s0.1,0,0.1,0.1s0,0.1,0,0.1s0.1,0.1,0.1,0.1s0,0,0,0.1s0,0,0,0.1
							c0,0.1,0,0.1,0,0.2c0,0.1,0,0.1,0,0.2c0,0.1,0,0-0.1,0.1s-0.1,0.1-0.2,0.1c-0.1,0-0.1,0-0.2-0.1c0,0-0.1-0.1-0.1-0.1l-0.1-0.1
							c0,0,0,0,0-0.1c0,0-0.1-0.1-0.1-0.1C108.7,91.3,108.7,91.3,108.7,91.2 M107.8,93.5c0-0.1,0,0,0.1-0.1s0-0.1,0.1-0.1
							s0-0.1,0-0.1s0-0.1,0-0.1s0.1,0,0.1-0.1s0.1-0.1,0.1-0.2c0-0.1,0-0.1,0.1-0.2c0.1-0.1,0.1-0.1,0.2-0.2c0,0,0.1-0.1,0.1-0.2
							c0-0.1,0.1-0.1,0.2-0.1s0.1,0,0.1,0.1s0,0.1,0,0.2s0.1,0.2,0.2,0.2s0.1,0.2,0.2,0.1c0-0.1,0.1-0.1,0.1-0.1c0,0,0,0,0.1,0.1
							c0,0.1,0,0.1,0,0.2c0,0.1,0,0.2,0.1,0.2c0,0.1,0,0.1,0.1,0.2c0,0,0.1,0.1,0.1,0.1c0,0.1,0.1,0,0.2,0s0.1,0,0.2,0.1
							s0.1,0,0.1,0s0,0.1,0,0.2s-0.1,0.1-0.1,0.2c0,0.1,0,0.2,0,0.2c0,0.1,0,0.1-0.1,0.2c0,0.1-0.1,0.2-0.1,0.3c0,0,0,0,0,0.1
							c0,0.1,0,0.2,0,0.4c0,0.1,0,0.1,0,0.2c0,0.1,0,0.2,0,0.3c0.1,0.2,0.1,0.3,0.2,0.5c0,0,0,0.1,0,0.2c0,0.1,0,0.1,0,0.2
							s0,0.1,0,0.1c0,0.1,0,0.1,0,0.2c0,0.1-0.1,0.1,0,0.2s0.1,0.2,0,0.2c-0.1,0-0.2,0-0.3,0c-0.1,0-0.2,0-0.3,0c-0.1,0-0.1,0-0.1,0
							c-0.1,0-0.3,0-0.4,0c-0.1,0-0.2-0.1-0.3,0s-0.1,0.1-0.2,0.1c0,0-0.1,0-0.1,0l0,0c-0.1,0-0.2,0-0.2,0c0,0,0,0-0.1,0
							c0-0.1,0-0.2,0-0.2c0-0.1,0-0.2,0-0.2c0-0.1,0-0.2,0-0.3c0-0.1,0-0.2,0-0.3c0-0.1,0-0.2,0-0.3c0-0.1,0.1,0,0.1-0.1
							c0-0.1,0-0.1,0-0.2c0-0.1,0-0.2,0-0.2c0-0.1,0-0.1,0-0.2c0-0.1,0-0.1,0-0.2s0-0.1,0.1,0s0.1,0.1,0.2,0.1c0.1,0,0.1,0,0.2,0
							c0.1,0,0.1,0.1,0.2,0.1c0.1,0,0.1,0,0.1-0.1s0.1-0.1,0.1-0.1c-0.1-0.1-0.1-0.1-0.1-0.2c0-0.1-0.1-0.1-0.1-0.2s0-0.2-0.2-0.2
							h-0.2c0,0-0.1-0.1-0.1-0.1l-0.1-0.1c-0.1,0-0.1,0-0.1-0.1s-0.1-0.1-0.2-0.1c-0.1,0-0.1-0.1-0.1-0.2c0-0.1,0-0.2,0-0.2
							s0,0,0-0.1"/>
					</g>
					<g id="g832">
						<path id="path834" class="st1" d="M109.1,80.5c0.1,0,0.1,0.1,0.1,0.2s0,0.1,0.1,0.1s0.1,0,0.2,0.1c0.1,0,0.1,0,0.2,0
							c0.1,0,0.1,0,0.1-0.1c0-0.1,0.1-0.1,0.1-0.2c0-0.1,0-0.1,0-0.2c0-0.1,0-0.1,0-0.2c0-0.1,0-0.1,0-0.1s-0.1-0.1-0.2-0.2
							c-0.1,0-0.1,0-0.2,0c-0.1,0-0.2,0-0.3,0c-0.1,0-0.1,0-0.1,0.1c0,0,0,0.1-0.1,0.2c0,0-0.1,0.1-0.1,0.2c0,0.1,0,0,0,0.1
							S109.1,80.5,109.1,80.5"/>
					</g>
					<g id="g836">
						<path id="path838" class="st1" d="M105.9,83.9c0.1,0.1,0.2,0.2,0.2,0.3s0.1,0,0.1,0.1c0.1,0.1,0.1,0.1,0.2,0.2
							c0.1,0.1,0.2,0.2,0.3,0.3c0,0.1,0.1,0.1,0.1,0.2c0.1,0,0.3,0.2,0.4,0.2s0.2,0.1,0.3,0.2s0.3,0.1,0.3,0.1c0.1,0,0.1,0,0.2,0
							c0.1,0,0.1,0,0.2,0l0.5,0.1c0.1,0,0.2,0,0.3,0c0.1,0,0.1,0,0.2,0.1s0.2,0,0.3,0s0.1,0,0.2,0s0.3,0,0.4,0s0.1-0.1,0.2-0.1
							c0.1,0,0.3-0.1,0.4-0.2c0-0.1,0.1-0.1,0.2-0.1s0.2,0,0.3-0.1l0.3-0.1c0.1,0,0.2-0.1,0.2-0.1c0.2,0,0.3-0.1,0.4-0.2
							c0.1,0,0.2,0.1,0.3,0.1s0.1,0.1,0.1,0.1s0.1,0,0.2,0c0.2,0.1,0.4,0.2,0.6,0.3c0,0,0.1,0,0.1,0c0.1,0,0.1,0,0.1,0.1
							s0.1,0.1,0.2,0.1c0.1,0.1,0.1,0.1,0.2,0.2c0.1,0.1,0.1,0.1,0.2,0.2c0.1,0,0.1,0,0.1,0.1s0.2,0.2,0.2,0.2s0.1,0,0.1,0.1
							c0.1,0.1,0.2,0.1,0.3,0.2c0.1,0,0.1,0.1,0.2,0.2c0,0.1,0.1,0.1,0.2,0.2s0.5,0.6,0.6,0.7s0.1,0,0,0.1l-0.1,0.2
							c0,0.1-0.1,0.2-0.1,0.3c0,0.1,0,0.1-0.1,0.1s-0.2-0.1-0.3-0.2s-0.2-0.1-0.3-0.2s-0.1-0.1-0.3-0.1s-0.2-0.1-0.3-0.1
							c-0.1,0-0.3-0.1-0.4-0.1c-0.1-0.1-0.2-0.1-0.3-0.1c-0.1,0-0.2,0-0.3-0.1c-0.1,0-0.2-0.1-0.3-0.2s-0.2-0.1-0.2-0.1
							s-0.1-0.1-0.2-0.1c-0.1,0-0.1-0.1-0.2-0.2c-0.1-0.1-0.1-0.1-0.2-0.1c-0.1,0-0.1,0-0.2-0.1c-0.1,0-0.1,0-0.2,0
							c-0.1,0-0.1,0-0.2,0s-0.3-0.1-0.4-0.1s-0.5,0-0.7,0l-0.4,0.1c-0.1,0-0.2,0-0.3,0c-0.1,0-0.3,0.1-0.4,0.1
							c-0.1,0-0.1,0.1-0.2,0.1c-0.2,0.1-0.4,0.2-0.6,0.4c-0.1,0.1-0.3,0.1-0.4,0.3s-0.2,0.2-0.3,0.2s-0.1,0.1-0.2,0.2
							s-0.2,0.3-0.1,0.4s0,0.1,0,0.2s-0.1,0.1-0.2,0.2s0,0.1,0.1,0.2s0.2,0.1,0.2,0s0.3,0,0.4,0.1s0.1,0.1,0.2,0.2s0.2,0,0.2,0
							c0.1,0,0.2,0,0.3,0c0.1,0,0.2,0.1,0.3,0.1c0.1,0,0.2,0.1,0.3,0s0.2,0,0.3,0.1s0.2,0,0.3,0s0.2-0.1,0.3,0s0.2,0,0.3,0
							s0.1,0,0.2,0s0.2-0.1,0.3-0.1L112,89c0.1,0,0.1,0,0.1,0s0.3-0.2,0.3-0.2s0.2,0,0.3-0.1s0.3-0.3,0.4-0.3
							c0.2-0.1,0.4-0.3,0.6-0.3c0.1,0,0.1-0.1,0.1-0.2c0-0.1,0.2,0,0.3,0.1c0.1,0,0.1,0.1,0.2,0.1c0.1,0,0.2,0,0.2,0.1
							s0.3,0.2,0.3,0.3c0.1,0.1,0.2,0.1,0.2,0.2c0.1,0.1,0.2,0.1,0.3,0.1c0,0,0-0.1,0.1,0.1s0.2,0.3,0.3,0.5s0.1,0,0.1,0.2
							s-0.1,0.2-0.1,0.4c0,0.2,0,0.3,0,0.5c0,0.2-0.1,0.3,0,0.4s0,0.2,0,0.3s0,0.2,0,0.4c0,0.1,0,0.3,0,0.4c0,0.1,0,0.3,0,0.4
							c-0.1,0.2-0.1,0.4-0.1,0.6c0,0.1,0,0.3,0,0.4c0,0.1,0,0.2,0,0.3v0.7c0,0.3,0,0.6,0,0.9c0,0.1,0,0.2-0.1,0.3s-0.1,0.2-0.1,0.3
							s0,0.1-0.1,0.3s0,0.1,0,0.3s0,0.1-0.1,0.2c-0.1,0.1-0.2,0.2-0.2,0.4c0,0.1,0,0.1-0.1,0.2s-0.1,0.2-0.1,0.3
							c0,0.1-0.1,0.2-0.1,0.2c-0.1,0.1,0,0.2-0.1,0.3s0,0.2,0,0.3s0,0.1,0,0.2s-0.1,0,0,0.1c0.1,0,0.2,0,0.3,0c0.1,0,0.1,0,0.2,0
							c0.1,0,0.2,0,0.3,0c0.1,0,0.2,0,0.3,0c0.1,0,0.1,0,0.1-0.1s0.1-0.2,0.1-0.2s0-0.2,0.1-0.3c0.1-0.1,0.1-0.2,0.1-0.3
							c0-0.1,0-0.2,0-0.3c0-0.1,0-0.1,0.1-0.2c0-0.1,0-0.2,0-0.3c0-0.1,0-0.2,0-0.3c0-0.1,0-0.2,0-0.3c0-0.1,0-0.2,0-0.3
							c0-0.2,0-0.1,0.1-0.3s0.1-0.1,0.1-0.2c0-0.1,0-0.2,0-0.2c0-0.1,0-0.1,0-0.2c0-0.1,0-0.2-0.1-0.2c0-0.1,0-0.1,0-0.2
							c0-0.1,0-0.2,0-0.3c0-0.1,0-0.2,0-0.3c0-0.1,0-0.2,0-0.2c0-0.1,0-0.2,0-0.3v-0.5c0-0.1,0-0.1,0-0.2s0-0.1,0-0.2
							c0-0.1,0-0.2,0-0.3c0-0.1,0-0.2,0-0.3c0-0.2,0-0.3,0-0.5c0-0.1,0-0.2,0-0.4c0-0.1,0-0.2,0-0.3c0-0.1,0-0.2,0.1-0.2
							c0-0.1,0-0.2,0.1-0.3c0-0.1,0-0.2,0-0.3c0-0.1,0-0.2,0-0.3c0.1-0.1,0-0.2,0-0.3c0-0.1,0-0.2-0.1-0.2c-0.1,0-0.1,0-0.1-0.1
							c0-0.1-0.1-0.1-0.1-0.2c0-0.1,0-0.2,0-0.2c0-0.1,0-0.2,0-0.3c0-0.1,0-0.2,0-0.2c0-0.1,0-0.2,0-0.2c0-0.1,0.1-0.1,0.1-0.2
							c0-0.1,0-0.2,0.1-0.3c0-0.1,0-0.2,0.1-0.2s0-0.1,0.1-0.2s0.1-0.2,0.1-0.3c0-0.1,0-0.2-0.1-0.2c-0.1-0.2,0-0.2-0.1-0.4
							s-0.1-0.2-0.2-0.4s-0.1-0.2-0.1-0.3c0-0.1-0.1-0.2-0.1-0.4c0,0,0.1,0,0-0.1s0-0.1-0.1-0.2c0-0.1-0.1-0.1-0.1-0.2
							c0-0.1,0-0.1,0-0.2c0-0.1-0.1-0.2-0.2-0.2c-0.1-0.1-0.1-0.1-0.1-0.2s-0.1-0.1-0.2-0.2c-0.1-0.1-0.1-0.2-0.2-0.3
							c-0.1,0-0.1-0.1-0.1-0.2c0-0.1-0.1-0.2-0.2-0.2c-0.1-0.1-0.2-0.2-0.3-0.3c-0.1,0-0.1-0.1-0.2-0.2c-0.1-0.1-0.1-0.2-0.1-0.3
							c-0.1-0.1-0.1-0.2-0.1-0.3c0-0.1,0-0.1,0-0.3c0-0.1,0-0.2,0-0.3c0-0.1,0-0.2,0-0.2c0-0.1,0-0.2,0-0.2c0-0.1,0-0.2-0.1-0.2
							c-0.1,0-0.1-0.1-0.1-0.2c0-0.1-0.1-0.2-0.1-0.2c0-0.1-0.1-0.2-0.2-0.2c0-0.1,0-0.1-0.1-0.3s0-0.2-0.1-0.3s-0.1-0.2-0.1-0.3
							s-0.2-0.2-0.3-0.2s-0.1-0.1-0.2,0s-0.2-0.1-0.2-0.2c-0.1-0.1-0.2-0.2-0.4-0.2l-0.5-0.3c-0.1,0-0.3,0-0.4,0c0,0-0.1,0-0.1,0
							c-0.1,0-0.2,0-0.2,0h-0.5c0,0-0.1,0-0.1,0.1c-0.1,0-0.1,0-0.2,0s-0.2,0-0.2,0.1c0,0.1,0,0.2,0.1,0.2c0.1,0.1,0.1,0.1,0.1,0.1
							s0.1,0.1,0.1,0.2s0.1,0.1,0.1,0.2c0,0.1,0,0.2,0,0.3c0,0.2,0,0.3,0.1,0.3s0.1,0.2,0.2,0.3s0,0.1,0.1,0.3c0,0.1,0,0.2,0.1,0.2
							c0.1,0.1,0.1,0.2,0.2,0.3s0.1,0.1,0.2,0.2s0,0.1,0.1,0.2c0,0.1,0.1,0.1,0.2,0.1c0.1,0.1,0.2,0.2,0.3,0.4
							c0.1,0.1,0.1,0.1,0.2,0.2s0.2,0.1,0.3,0.1c0.1,0,0.2,0,0.3,0c0.1,0,0.2,0,0.3,0c0.1,0,0.2,0,0.3,0c0.1,0,0.2,0,0.3,0
							c0.1,0,0.3,0.3,0.4,0.4c0,0.1,0.1,0.1,0.2,0.2c0.1,0,0.1,0.1,0.1,0.2c0,0.1,0,0.1,0.1,0.2c0,0.1,0.1,0.1,0.2,0.2
							s0.5,0.8,0.5,0.8c0,0.1,0,0.1,0,0.2c0,0.1,0,0.1,0.1,0.2c0,0.1,0.1,0.1,0.1,0.2c0,0.1,0.1,0.1,0.1,0.2c0,0.1,0,0.1,0,0.2
							c0,0.1,0,0.2,0,0.2c0.1,0.3,0.1,0.6,0.1,0.9c0,0.3-0.1,0.1-0.2,0s-0.2-0.2-0.3-0.2s-0.3-0.2-0.4-0.3s0-0.1-0.1-0.2
							c-0.1-0.1-0.2-0.2-0.3-0.2c-0.1,0-0.4-0.2-0.5-0.3s-0.2-0.2-0.3-0.2c-0.1,0-0.2,0-0.2-0.1c-0.1-0.1-0.2-0.2-0.4-0.2
							c-0.2-0.1-0.4-0.2-0.7-0.2c-0.1,0-0.1-0.1-0.1-0.2s-0.1-0.2-0.1-0.3c0-0.1,0-0.1,0-0.2c0-0.1,0-0.1-0.1-0.2s0-0.1,0-0.2
							c0-0.1-0.1-0.1-0.1-0.2c-0.1,0-0.3-0.3-0.4-0.3s-0.5-0.4-0.6-0.4s-0.4-0.3-0.5-0.4s-0.7-0.3-0.8-0.4c-0.1,0-0.2,0-0.3,0
							c-0.2,0-0.3,0-0.5-0.1c-0.2,0-0.3,0-0.5,0c-0.2,0-0.4,0-0.5,0c-0.1,0-0.3,0-0.4,0.1l-0.1,0.1c-0.1,0-0.1,0.1-0.2,0.1
							c-0.1,0-0.1-0.1-0.2,0s-0.2,0.1-0.3,0.1c-0.1,0-0.1,0.1-0.2,0.1c-0.1,0-0.2,0-0.3,0.1c-0.1,0.1-0.1,0.1-0.2,0.1
							c-0.1,0-0.2,0.1-0.2,0.1c-0.1,0-0.1,0.1-0.2,0.1c-0.1,0-0.1,0.1-0.2,0.1s-0.2,0.1-0.2,0.1c-0.1,0.1-0.3,0.1-0.4,0.2
							c-0.1,0.1,0,0.1,0,0.2s0.1,0,0.2,0.1c0.1,0.1,0.2,0.1,0.2,0.2c0.1,0.1,0.1,0.1,0.2,0.2c0.1,0.1,0.1,0.1,0.2,0.2
							c0.1,0.1,0.1,0.1,0.2,0.2 M112.8,88.2c-0.2,0.2-0.4,0.3-0.4,0.3s-0.2,0-0.2,0.1c-0.1,0.1-0.1,0.1-0.2,0.2
							c-0.1,0.1-0.3,0.2-0.5,0.3c-0.1,0-0.2,0-0.3,0.1c-0.1,0-0.1,0.1-0.2,0.1h-0.4c-0.1,0-0.2-0.1-0.3-0.1s-0.2,0-0.3,0s0,0-0.2,0
							s-0.1,0-0.2,0h-0.2c-0.1,0-0.1,0-0.2,0V89c0,0-0.1,0-0.1,0c-0.1,0-0.1,0-0.2,0s-0.1,0-0.2,0l-0.1-0.1
							c-0.1-0.1-0.1-0.1-0.1-0.1s0.1,0,0.1-0.1c0-0.1,0.1-0.1,0.1-0.2c0-0.1,0-0.1,0-0.1s0.1,0,0.1-0.1s0.1-0.1,0.1-0.1
							s0-0.1,0.1-0.1s0.1,0,0.1-0.1s0.1-0.1,0.2-0.2s0-0.1,0.1-0.1s0.1,0,0.2-0.1s0.1,0,0.2,0s0.1,0,0.2-0.1s0.2,0,0.2-0.1
							s0.1,0,0.2-0.1c0.1,0,0.3-0.1,0.4-0.1c0.1,0,0.3,0,0.4-0.1c0.1,0,0.4,0.1,0.5,0.1c0.2,0,0.3,0,0.5,0.1c0.1,0,0.2,0.1,0.3,0.1
							s0.1,0.1,0.2,0.1s0,0.1-0.1,0.1c-0.1,0-0.2,0-0.2,0c-0.1,0-0.2,0-0.3,0c-0.1,0-0.2,0-0.3,0c-0.1,0-0.2,0.1-0.4,0.1
							c-0.1,0-0.2,0-0.2,0l-0.3,0.1l-0.3,0.1c-0.1,0-0.1,0.1-0.2,0.1s-0.2,0.1-0.3,0.2s-0.1,0.1,0,0.1s0.1,0,0.2,0
							c0.1,0,0.2-0.1,0.3-0.1c0.1,0,0.1,0,0.2-0.1c0.1,0,0.1,0,0.3-0.1s0.2,0,0.3,0c0.1,0,0.1-0.1,0.2-0.1c0.1,0,0.2,0,0.3,0
							c0.1,0,0.2,0,0.3,0s0.3,0,0.4,0S112.8,88.2,112.8,88.2C113,88.2,113.1,88.2,112.8,88.2 M114.4,80.9
							C114.4,80.9,114.4,80.9,114.4,80.9c-0.1,0.2-0.1,0.2-0.1,0.3c0,0,0,0.1,0,0.1c0,0,0,0.1,0,0.1c0,0.1,0,0.1,0,0.2
							s0.1,0.2,0,0.1l-0.2-0.1c-0.1-0.1-0.2-0.1-0.2-0.2s0-0.1-0.1-0.2s-0.1,0-0.2-0.1c-0.1-0.1-0.2-0.2-0.2-0.3
							c-0.1-0.1-0.2-0.2-0.3-0.2c-0.1,0-0.1-0.1-0.2-0.1c-0.1,0-0.2,0-0.2-0.1s-0.1-0.1-0.2-0.1s0,0.2,0,0.2l0.2,0.1
							c0.1,0,0.1,0.1,0.2,0.2c0,0.1,0,0.1,0.1,0.2c0.1,0.1,0.2,0.1,0.2,0.2c0.1,0.1,0.1,0.1,0.2,0.1c0,0.1,0.1,0.1,0.1,0.2
							c0,0.1,0,0.2,0.1,0.2s0.2,0.3,0.1,0.2c-0.1,0-0.2,0-0.3,0c-0.1,0-0.2,0-0.3,0s-0.3-0.2-0.3-0.2c-0.1-0.1-0.2-0.1-0.3-0.2
							c0,0-0.2-0.1-0.2-0.2c-0.1,0-0.1-0.1-0.2-0.2c0-0.1-0.1-0.2-0.1-0.2c-0.1-0.1-0.1-0.1-0.1-0.2c0-0.1,0.1-0.1,0-0.2
							s-0.2-0.1-0.2-0.2s0-0.2,0-0.2c-0.1-0.1-0.1-0.1-0.1-0.2l-0.1-0.3c0-0.1-0.1-0.2-0.1-0.2c0-0.1-0.1-0.2-0.1-0.2
							c0-0.2-0.1-0.2,0-0.2c0.1,0,0.2,0,0.3,0c0.2,0,0.3,0.1,0.5,0.1c0.1,0,0.1,0.1,0.2,0.1s0.3,0.1,0.5,0.1c0.1,0,0.2,0,0.2,0.1
							c0.1,0.1,0.1,0.1,0.2,0.1c0.1,0,0.2,0.1,0.2,0.2c0.1,0.1,0.1,0.1,0.2,0.2c0,0.1,0.1,0.1,0.2,0.2c0.1,0,0.1,0.1,0.2,0.2
							c0,0.1,0.1,0.2,0.1,0.2s0.1,0.1,0.1,0.2s0.1,0.2,0.1,0.2S114.5,80.9,114.4,80.9 M106,83.2c0-0.1,0.1-0.1,0.2-0.2
							s0.3-0.1,0.4-0.2s0.2-0.1,0.2-0.2c0-0.1,0.1-0.1,0.2-0.1c0.1,0,0.2-0.1,0.3-0.2l0.2-0.1c0.1,0,0.2,0,0.3-0.1
							c0.1,0,0.1,0,0.2,0c0.2,0,0.3,0,0.5,0c0.2,0,0.4,0,0.6,0c0.1,0,0.2,0.1,0.2,0s0.2,0,0.3,0.1l0.9,0.4c0.2,0.1,0.2,0.1,0.3,0.2
							c0.1,0,0.2,0.1,0.3,0.2c0.1,0.1,0,0.1,0.1,0.2s0.1,0.1,0.2,0.2c0.1,0.1,0.1,0.2,0.2,0.3c0,0.1,0.1,0.2,0,0.2
							c-0.1-0.1-0.2-0.2-0.3-0.2c-0.2,0-0.4-0.1-0.7-0.2c-0.2,0-0.4-0.1-0.6-0.1c-0.3-0.1-0.5-0.2-0.8-0.2h-0.4c-0.1,0-0.2,0-0.3,0
							c-0.1,0-0.3,0-0.4,0.1c-0.1,0-0.2-0.1-0.3,0s-0.1,0.2-0.2,0.1s-0.2-0.1-0.2,0c0,0.1,0,0.2,0,0.2c0,0,0.1,0.1,0.2,0
							c0.1,0,0.2,0,0.4,0c0.1,0,0.3,0,0.4,0c0.1-0.1,0.2,0,0.3,0s0.2-0.1,0.3,0s0.2,0.1,0.3,0.1c0.2,0,0.3,0,0.4,0.1
							c0.2,0.1,0.3,0.1,0.5,0.2c0.2,0.1,0.4,0.1,0.5,0.2c0.1,0.1,0.2,0.2,0.3,0.2c0.1,0,0.1,0,0.2,0c0.1,0,0.3,0.1,0,0.2
							c-0.2,0.1-0.4,0.1-0.5,0.2c-0.1,0-0.2,0.1-0.3,0.2c-0.1,0.1-0.2,0-0.3,0c-0.2,0-0.3,0-0.4,0.1c-0.1,0-0.3,0.1-0.4,0.1
							c-0.1,0-0.2,0-0.3,0c-0.2-0.1-0.5-0.2-0.7-0.2c-0.1,0-0.2,0-0.3-0.1c-0.1,0-0.1-0.1-0.2-0.1l-0.2-0.1l-0.2-0.1l-0.2-0.1
							c-0.1-0.1-0.1-0.1-0.2-0.2c-0.2-0.1-0.1-0.2-0.2-0.2s-0.1-0.1-0.2-0.2s-0.2-0.1-0.2-0.1c0-0.1,0-0.1-0.1-0.2
							c-0.1,0-0.1,0-0.2-0.1c0-0.1,0-0.1,0-0.2C106.2,83.4,106,83.4,106,83.2"/>
					</g>
					<g id="g840">
						<path id="path842" class="st1" d="M120.3,77.7c0.1,0,0.2,0.1,0.2,0.2c0,0.1,0,0.1,0.1,0s0.1,0,0.2,0s0.1,0.1,0.2,0
							s0.1-0.1,0.1-0.2c0-0.1,0-0.1,0-0.2c0-0.1,0-0.1,0-0.2s-0.1-0.1-0.1-0.2c0-0.1-0.1-0.1-0.2-0.1c-0.1,0-0.1,0-0.2,0
							c-0.1,0-0.2,0-0.2,0c-0.1,0-0.1,0.1-0.2,0.1c0,0.1-0.1,0.1-0.1,0.2c0,0,0,0.1,0,0.1C120.1,77.6,120.2,77.7,120.3,77.7"/>
					</g>
					<g id="g844">
						<path id="path846" class="st1" d="M125.5,80.8c0.1,0.1,0.2,0.1,0.3,0.1s0.1,0,0.1-0.1s0,0,0.2-0.1s0.1-0.1,0.1-0.2
							c0-0.1,0-0.1,0-0.2c0-0.1,0-0.1-0.1-0.2c0,0-0.1-0.1-0.1-0.1c0-0.1-0.1,0-0.2-0.1c0,0-0.1,0-0.2,0c0,0-0.1,0.1-0.2,0.1
							c-0.1,0-0.1,0-0.1,0.1s0,0.1-0.1,0.1c0,0.1,0,0.1,0,0.2c0,0.1,0,0.1,0.1,0.2S125.4,80.6,125.5,80.8"/>
					</g>
					<g id="g848">
						<path id="path850" class="st1" d="M129.6,82.8c0-0.1,0-0.2-0.2-0.2c-0.1,0-0.1,0-0.2,0c-0.1,0-0.1,0-0.2-0.1
							c-0.1-0.1-0.2-0.1-0.2-0.2c-0.1-0.1-0.3-0.1-0.4-0.2c-0.1-0.1-0.1-0.1-0.3-0.1c-0.1,0-0.1,0-0.2-0.1c-0.1,0-0.2-0.1-0.3-0.1
							c-0.1,0-0.2,0-0.3,0s-0.1-0.1-0.2,0s-0.3,0-0.4,0c-0.2,0-0.3,0-0.5,0c-0.2,0-0.4,0-0.7,0c-0.2,0-0.3,0-0.4,0.1
							c-0.1,0-0.1,0.1-0.2,0.2s-0.1,0-0.2,0.1s0-0.1-0.1,0s-0.2,0.1-0.2,0.2c-0.1,0.1-0.2,0.1-0.2,0.1c-0.2,0.1-0.3,0.2-0.4,0.3
							c-0.1,0.1-0.1,0.2-0.2,0.3l-0.2,0.3c0,0.1-0.1,0.2-0.2,0.3c-0.1,0.1-0.1,0.1-0.2,0.2l-0.1,0.1c-0.1,0-0.1,0.1-0.2,0.1
							c-0.1,0-0.1,0.1-0.2,0.1c0,0-0.1,0.1-0.1,0.1c-0.1,0.1-0.1,0-0.2,0.1s0,0.1-0.1,0.1c-0.1,0-0.1,0.1-0.2,0.1c0,0.1,0,0-0.1,0
							s-0.1,0.1-0.2,0.2s-0.1,0-0.2,0.1s-0.1,0-0.1,0.1s0,0.1-0.1,0.1s-0.1,0-0.2,0.1s-0.1,0.1-0.2,0.1s-0.1,0.1-0.2,0.2
							c-0.1,0.1-0.2,0.1-0.3,0.2c-0.2,0.2-0.4,0.3-0.5,0.5c-0.1,0.2-0.2,0.1-0.2,0.2c-0.1,0.1-0.2,0.2-0.3,0.3
							c-0.1,0.2-0.1,0.2-0.2,0.2s-0.1,0.1-0.2,0.3s-0.1,0.1-0.2,0.2s-0.1,0.2-0.2,0c0-0.1-0.1-0.1-0.1-0.2c0-0.1-0.1,0-0.1-0.1
							s0-0.1-0.1-0.3s-0.1-0.1,0-0.2c0-0.1,0.1-0.1,0.1-0.2c0.1-0.1,0.2-0.2,0.2-0.3l0.2-0.3c0.1-0.2,0.1-0.1,0.1-0.3s0-0.1,0.1-0.1
							s0.2-0.2,0.3-0.3c0.1-0.1,0.2-0.2,0.2-0.3c0.1-0.1,0.1-0.3,0.2-0.4c0.1-0.1,0.2-0.2,0.2-0.2c0.1-0.1,0.2-0.2,0.3-0.3
							s0.2-0.1,0.3-0.1c0.1,0,0.1,0,0.2,0c0.1,0,0.1,0,0.1,0.1s0.2,0,0.2,0c0.1-0.1,0.1-0.1,0.2-0.1c0.2,0,0.1,0.1,0.2,0
							c0.1-0.1,0.2-0.2,0.3-0.3c0.2-0.1,0.3-0.3,0.4-0.5c0.1-0.2,0.3-0.4,0.4-0.5c0.1-0.1,0.2-0.2,0.3-0.3c0.1-0.1,0.2-0.3,0.3-0.4
							c0.1-0.1,0.1-0.3,0.2-0.4c0-0.1,0.1-0.2,0.1-0.2c0.1-0.1,0-0.2,0-0.3c0-0.1,0-0.2,0-0.3c0-0.1,0-0.2,0.1-0.3
							c0-0.1,0-0.1,0-0.2c0-0.1,0-0.1,0-0.2c0-0.1,0-0.1-0.1-0.2s0-0.1,0-0.2c0-0.1,0-0.2-0.1-0.2c-0.1-0.1-0.1-0.1-0.1-0.2
							c0-0.1-0.1-0.2-0.2-0.2c-0.1-0.1-0.1,0-0.2,0.1s-0.1,0.1-0.2,0.1s-0.1,0.1-0.2,0.1c-0.1,0.1-0.2,0.1-0.3,0.2
							c-0.2,0.2-0.1,0.1-0.2,0.1c-0.1,0-0.2,0.1-0.3,0.2c-0.2,0.1-0.2,0.1-0.4,0.2s-0.3,0.1-0.4,0.3s-0.1,0.1-0.2,0.3s0,0,0,0.1
							s-0.1,0.1-0.1,0.2s-0.1,0.1,0,0.2s-0.1,0.1-0.2,0.2c-0.1,0.1-0.1,0.1-0.1,0.2c0,0.2-0.1,0.1-0.1,0.3s0,0.1,0,0.1s0,0,0,0.1
							s0,0,0,0.1s-0.1,0.1-0.1,0.2c0,0.1,0,0.1-0.1,0.2c0,0-0.1,0.1-0.1,0.1c0,0.1,0,0.1,0,0.2c0,0.1,0,0.2,0,0.2c0,0.1,0,0.2,0,0.2
							c0,0,0,0.1,0,0.1c0,0,0,0.1,0,0.1c0,0,0.1,0,0.1,0.1c0,0.1,0,0.1,0,0.2c0,0.1-0.1,0.1-0.2,0.1c-0.1,0.1-0.1,0.2-0.2,0.3
							c-0.1,0.1-0.1,0.2-0.2,0.3c-0.1,0.2-0.1,0.2-0.2,0.3s0,0.1-0.1,0.2c0,0-0.1,0.1-0.1,0.1c-0.1,0,0,0.1-0.1,0.2
							c-0.1,0.1-0.1,0.1-0.1,0.2c0,0.1-0.1,0.2-0.2,0.3c0,0.1-0.1,0.1-0.1,0.2c0,0.1-0.1,0.1-0.2,0.2L118,86c-0.1,0.1,0-0.1,0-0.2
							c0-0.1,0-0.1,0-0.2c0-0.1,0-0.1-0.1-0.2s0-0.1,0-0.2s0-0.1,0-0.1V85v-0.1c0-0.1,0-0.1-0.1-0.2c0-0.1,0-0.1,0-0.2
							c0-0.1,0-0.1,0-0.2c0-0.1,0-0.1,0-0.2c0-0.1,0-0.2,0-0.3c0-0.1,0-0.1,0-0.2c0-0.1,0-0.1,0-0.2c0-0.1,0-0.1,0-0.2
							c0-0.1,0-0.2,0-0.3c0-0.2,0-0.2,0-0.3s0-0.1,0-0.4s0-0.2,0.1-0.2s0.1-0.2,0.2-0.3s0.1-0.2,0.1-0.2s0.1-0.1,0.2-0.2
							s0.1-0.1,0.2-0.1c0.1,0,0.1-0.1,0.1-0.2c0-0.1,0.1-0.2,0.1-0.3c0-0.1,0.1-0.2,0.1-0.2c0.1-0.1,0.1-0.1,0.1-0.2
							c0-0.1,0-0.2,0-0.3c0-0.1,0-0.1,0-0.2c0-0.1,0-0.2,0-0.2c0-0.1,0-0.2,0-0.2c0-0.1,0-0.1,0-0.2s0-0.1,0-0.2s0-0.2,0-0.3
							c0-0.1,0-0.2,0-0.3c0-0.1,0-0.2,0-0.3c0-0.1,0-0.2-0.1-0.3c0-0.1-0.1-0.1-0.1-0.2c0-0.1-0.1-0.1-0.1-0.2c0-0.1,0-0.1-0.1-0.2
							s-0.1-0.2-0.2-0.3s0-0.2-0.1-0.2s-0.1-0.1-0.1-0.2c0-0.1-0.1-0.2-0.2-0.2c0-0.1,0-0.1-0.1-0.2S118,76,118,76
							c0-0.1,0-0.3-0.1-0.4c-0.1,0-0.1-0.1-0.2-0.2c0-0.1,0-0.1,0-0.2c0-0.1,0-0.2-0.1-0.3s-0.1,0-0.2,0c-0.1,0-0.1,0.1-0.2,0.2
							c0,0.1,0,0.1,0,0.2c0,0.1-0.1,0.1-0.1,0.2l-0.1,0.1c0,0.1-0.1,0.1-0.1,0.2c0,0.1-0.1,0.1-0.2,0.2c-0.1,0,0,0-0.1,0.2
							c-0.1,0.1-0.1,0.2-0.2,0.3c-0.1,0.1-0.1,0.2-0.2,0.3c0,0.1-0.1,0.2-0.1,0.3c0,0.1-0.1,0.1-0.1,0.2l-0.1,0.1v0.2
							c0,0-0.1,0.2-0.2,0.4s0,0.1,0,0.1c0,0.1,0,0.1-0.1,0.2c0,0.1,0,0.2,0,0.2c0,0.1,0,0.2,0,0.3c0,0.1,0,0.2,0,0.3
							c0,0.1,0,0.1,0,0.2c0,0,0,0.1,0,0.1c0,0,0,0.1,0.1,0.2c0,0.1,0,0.2,0.1,0.2c0,0.1,0,0.1,0,0.2c0,0.1,0,0.1,0.1,0.2
							s0,0.1,0,0.2c0,0.1,0,0.1,0,0.2c0,0.1,0,0.1,0.1,0.1s0.1,0,0.1,0.1s0,0.1,0,0.1s0.1,0.1,0.1,0.2s0.1,0.1,0.1,0.2
							s0.1,0,0.1,0.1s0.1,0.1,0.2,0.2c0,0.1,0.1,0.1,0.2,0.1c0.1,0,0.1,0,0.2,0c0.1,0,0.1,0,0.2-0.1c0.1,0,0-0.1-0.1-0.2l-0.2-0.2
							c0-0.1,0-0.1-0.1-0.1s-0.1,0-0.1,0c0,0-0.1-0.1-0.1-0.1c0-0.1-0.1-0.1-0.2-0.1c-0.1,0-0.1-0.1-0.1-0.2s0-0.1,0-0.2
							c0-0.1,0-0.1,0-0.2c0-0.1,0-0.1,0-0.2s0-0.1-0.1-0.2s-0.1-0.1-0.1-0.1c0-0.1,0-0.2,0-0.2c0-0.1,0-0.2-0.1-0.2s-0.1,0-0.1-0.2
							s0-0.1,0.1-0.3s0-0.1,0-0.2c0-0.1,0.1-0.1,0.1-0.2c0.1-0.1,0-0.1,0.1-0.2c0-0.1,0.1-0.2,0.1-0.3c0-0.1,0.1-0.1,0-0.2
							s0.1-0.1,0.1-0.1s0.1-0.1,0.1-0.2c0-0.1,0.1-0.2,0.1-0.3c0-0.1,0.1-0.2,0.1-0.2c0-0.1,0.1-0.2,0.2-0.2
							c0.1-0.1,0.1-0.1,0.1-0.1s0-0.1,0-0.1s0-0.1,0.1-0.2s0.1-0.1,0.2-0.2s0.1,0,0.1,0c0,0.1,0,0.1,0.1,0.2
							c0.1,0.1,0.1,0.1,0.1,0.1c0,0.1,0.1,0.1,0.1,0.2c0,0.1,0,0.1,0.1,0.2c0,0,0.1,0.2,0.1,0.2s0.1,0.1,0.1,0.1
							c0,0.1,0,0.1,0.1,0.2c0.1,0.1,0.1,0.2,0.1,0.3c0,0.2,0.1,0.2,0.2,0.3s0,0.2,0.1,0.3c0,0.1,0,0.2,0,0.3c0,0.2,0,0.1,0.1,0.2
							c0,0.1,0,0.2,0,0.3c0,0.1,0,0.2,0,0.3c0,0.2,0,0.1,0.1,0.2c0,0.1,0,0.2,0,0.3c0,0.1,0,0.1,0,0.2c0,0.1,0,0.2,0,0.3
							c0,0.1,0,0.1-0.1,0.2l-0.2,0.2c-0.1,0.1-0.1,0.1-0.2,0.2c0,0.1-0.1,0.1-0.1,0.2c0,0-0.1,0-0.2,0.1s-0.1,0-0.1-0.1
							s0-0.1-0.1-0.2s0,0-0.1-0.1s0-0.1-0.1-0.2c0,0,0-0.1,0-0.2c0,0,0-0.1-0.1-0.1c0,0,0-0.1,0-0.1s0-0.1,0-0.2s0-0.1,0-0.1
							s-0.1-0.1-0.1-0.1s0,0,0-0.1c0-0.1,0-0.1,0.1-0.2c0,0,0-0.1,0-0.1c0,0,0-0.1,0-0.1l-0.1-0.2c0-0.1,0-0.1-0.1,0
							c-0.1,0.1-0.1,0.1-0.1,0.2c0,0.1,0,0.1-0.1,0.2s-0.1,0.1-0.1,0.2s0,0.1,0,0.2c0,0.1,0,0.1,0,0.2c0,0.1,0,0.1,0,0.2
							c0,0.1,0,0,0.1,0.1c0,0.1,0,0.1,0,0.2c0,0.1,0,0.1,0.1,0.2s0,0.2,0.1,0.3s0,0.3,0.1,0.4s0,0.1,0.1,0.2s0,0.1-0.1,0.2
							s0,0.1,0,0.2s0,0.1,0,0.2s0,0-0.1,0.2s0,0.1,0,0.2s0,0.6,0,0.6s0,0.3,0,0.3c0,0.2-0.1,0.4-0.1,0.6c0,0.1,0,0.3,0,0.4
							c0,0.1,0,0.1,0,0.2c0,0.1,0,0.1,0,0.2s0,0.4,0,0.4c0,0,0,0.1,0,0.1c0,0.1,0,0.1,0,0.2s0,0.1,0,0.2c0,0.1,0,0.2,0,0.3
							c0,0.1,0,0.2,0.1,0.2s0.1,0.1,0,0.2s0,0.2,0,0.2s0.1,0,0.1,0.1c0,0.1,0,0.2,0,0.2c0,0.1,0,0.1,0.2,0.1s0.1,0,0.1,0.1
							c0,0.1,0,0.1,0,0.2c0,0.1,0,0,0.1,0.1c0,0.1,0,0.1,0.1,0.2c0,0.1,0.1,0.1,0.2,0.2s0,0.1,0.1,0.1s0.1,0.1,0.1,0.2
							s0.1,0.2,0.2,0.1s0.1,0,0.1,0.1c0,0.1,0,0.2-0.1,0.3c-0.1,0.2-0.1,0.2-0.1,0.3s0,0.1,0.1,0.3s0,0.1,0,0.3s0,0.1,0,0.2
							s0,0.1,0,0.2c0,0.1,0,0.2,0,0.3c0,0.1,0,0.1,0,0.3c0,0.1,0,0.2-0.1,0.3c0,0.1,0,0.1,0.1,0.1s0,0.1,0,0.3c0,0.1,0,0.2,0,0.3
							c0,0.2,0,0.1,0,0.2c0,0.1,0,0.2,0,0.3c0,0.1,0,0.2,0,0.3c0,0.1,0,0.2,0,0.3c0,0.1,0,0.1,0,0.2s0,0.1,0,0.3c0,0.1,0,0.2,0,0.2
							c0,0.1,0,0.2,0,0.2c0,0.2,0,0.2,0,0.2c0,0.1,0,0.2,0,0.2c0,0.1,0,0.2,0,0.3c0,0.1,0,0.1,0,0.3c0,0.3,0,0.5,0,0.8
							c0,0.2,0,0.3,0,0.5c0,0.1,0,0.1,0,0.2c0,0.1,0,0.1,0,0.2s0,0.1,0,0.2c0,0.1,0,0.1,0,0.2c0,0.1,0,0,0.1,0.2s0,0.2,0,0.3
							c0,0.1,0,0.1,0.1,0.2c0,0,0,0.1,0,0.1s0,0.1,0.1,0.2s0,0.1,0.1,0.2s0,0,0,0.1s-0.1,0,0,0.1c0,0,0.1,0.1,0.1,0.1
							c0.1,0,0.1,0,0.2,0c0.1,0,0.1,0,0.2,0.1c0.1,0.1,0.1,0,0.2,0.1c0.1,0,0.2,0.1,0.3,0.2c0.1,0,0.2,0.1,0.3,0.1
							c0.1,0,0.1-0.1,0.1-0.2s0-0.2,0-0.3s0-0.1-0.1-0.2c-0.1-0.1-0.1-0.1-0.1-0.2c0-0.1,0-0.1-0.1-0.2s-0.1-0.1-0.1-0.2
							s-0.1-0.2-0.2-0.3c-0.1-0.1-0.1-0.1-0.1-0.2c0-0.1,0-0.2,0-0.3c0-0.1,0-0.3,0-0.4c0-0.1,0-0.1,0-0.2s-0.1-0.1-0.1-0.3
							s0-0.2-0.1-0.3c0-0.1,0-0.2,0-0.3c0-0.1,0-0.2-0.1-0.3c0-0.1,0-0.2-0.1-0.3s0-0.1,0.1-0.2s0-0.1,0-0.2v-0.3c0-0.1,0-0.1,0-0.2
							v-0.2c0-0.1,0-0.2,0-0.2c0-0.1,0-0.2,0-0.2c0-0.1,0-0.2,0.1-0.3c0-0.1,0-0.2,0-0.3c0-0.2,0-0.2,0.1-0.2s0.1,0,0-0.2
							s0-0.1,0-0.2s0-0.1,0-0.3s0-0.2,0.1-0.3s0.1-0.1,0-0.2s0-0.1,0-0.2s0-0.1,0-0.2c0-0.1,0-0.2,0-0.2c0-0.1,0-0.1,0-0.2
							c0-0.1,0-0.2,0-0.3c0-0.1,0-0.2,0.1-0.2c0.1-0.1,0-0.1,0-0.2s0-0.2-0.1-0.3s0-0.2,0-0.3s0-0.1-0.1-0.2s-0.1-0.1,0-0.2
							c0.1-0.1,0.1-0.2,0.2-0.3c0.1-0.1,0-0.1,0-0.1s0.1-0.1,0.2-0.1s0.1-0.1,0.1-0.2s0.1-0.1,0.2-0.2s0.1,0,0.3,0
							c0.1,0,0.2,0,0.3,0.1c0.1,0.1,0.1,0,0.2,0c0.1-0.1,0.2-0.1,0.2,0c0.1,0,0.2,0,0.2,0c0.1,0,0.1,0,0.2,0s0.3,0,0.4,0.1
							s0.1,0,0,0.2s0,0.2,0,0.2s0,0.1,0,0.2s0.1,0.1,0.1,0.2c0.1,0,0.1,0.1,0.1,0.2c0,0.1,0.1,0.2,0.2,0.2s0.2,0.2,0.3,0.3
							c0.1,0.1,0.2,0.2,0.3,0.2c0.1,0.1,0.1,0.1,0.2,0.2s0.2,0.1,0.3,0.2l0.3,0.1c0.1,0,0.3,0.1,0.4,0.1h0.2c0.1,0,0.2,0,0.2,0.1
							s1,0,1.2,0s0.3,0,0.4,0c0.1,0,0.2,0,0.3-0.1c0.1-0.1,0.3-0.1,0.4-0.1c0.1,0,0.1,0,0.2-0.1s0.1,0,0.1-0.1s0-0.1-0.1-0.2
							s0-0.1,0-0.1s0-0.1,0-0.2c0-0.1,0-0.2,0-0.2c0-0.1,0-0.1-0.1-0.2c-0.1,0-0.1-0.1-0.1-0.2c-0.1-0.1,0-0.1,0-0.2
							s-0.1-0.1-0.2-0.2s-0.1-0.1-0.2-0.2l-0.4-0.2c-0.1,0-0.1-0.2-0.2-0.2c-0.1-0.1-0.3-0.2-0.4-0.2c-0.1,0-0.4-0.1-0.5-0.2
							c-0.2,0-0.4-0.1-0.6-0.1c-0.2,0-0.4-0.1-0.6-0.1h-0.3c-0.1,0-0.3,0-0.4,0.1c-0.2,0.1-0.3,0-0.5,0s-0.4,0-0.4,0
							c-0.1,0-0.2,0-0.3,0c-0.1,0-0.2,0-0.3,0c-0.1,0-0.2,0-0.3-0.1h-0.2c0,0,0.1-0.1-0.2,0s-0.3,0-0.2-0.1s0.1-0.2,0.2-0.2
							c0.1-0.1,0.2-0.2,0.3-0.2c0.1-0.1,0.1-0.2,0.2-0.2c0.1-0.1,0.1-0.1,0.2-0.2c0-0.1,0-0.1,0.1-0.2c0.1-0.1,0.3-0.2,0.3-0.2
							s0.2-0.2,0.2-0.2c0.1,0,0.1-0.1,0.2-0.1c0.1-0.1,0.3-0.2,0.5-0.3c0.3-0.1,0.2-0.1,0.3,0.1s0.2,0,0.3,0.1
							c0.1,0.1,0.2,0.1,0.3,0.2c0.1,0,0.2,0.2,0.3,0.2c0.1,0,0.3,0,0.4,0c0.1,0,0.2,0,0.3-0.1c0.1-0.1,0.2,0,0.3,0s0.2,0.1,0.3,0.1
							c0.1,0,0.3,0,0.4,0c0.1,0,0.2,0,0.3,0c0.2,0,0.3,0,0.4-0.1c0.1-0.1,0.1-0.1,0.2-0.1c0.1-0.1,0.3-0.1,0.4-0.2
							c0.2-0.1,0.4-0.1,0.6-0.2s0.2-0.2,0.3-0.2c0.1,0,0.2-0.1,0.4-0.3c0.2-0.2,0.6-0.6,0.7-0.6c0.1-0.1,0.2-0.1,0.3-0.2
							c0.1,0,0.2-0.1,0.2-0.2C129.7,82.9,129.6,82.9,129.6,82.8 M120.1,82.1c0-0.1,0.1-0.1,0.1-0.2c0-0.1,0-0.2,0-0.3
							c0-0.2,0-0.1,0-0.2s0.1-0.2,0.2-0.2s0.1-0.1,0.1-0.2c0-0.1,0.1-0.1,0.1-0.2c0.1,0,0.1,0,0.2-0.1c0-0.1,0.1-0.1,0.2-0.2
							c0.1-0.1,0.1-0.1,0.1-0.2s0,0,0.1-0.1c0.1,0,0.1-0.1,0.2-0.2c0.1-0.1,0.1,0,0.2-0.2c0.1-0.1,0.2-0.2,0.4-0.3
							c0.1-0.1,0.2,0,0.3-0.2s0.1,0,0.2-0.1s0.1-0.3,0.2-0.1c0,0.1,0.1,0.2,0.1,0.2c0.1,0.1,0.1,0.2,0.1,0.2c0,0,0,0.1,0,0.2
							c0,0.1,0,0,0,0.2s0,0.1,0.1,0.3s0,0.2-0.1,0.3s0,0.2-0.1,0.3s0,0,0,0.2c0,0.1-0.1,0.1-0.1,0.2c0,0.1-0.1,0.1-0.1,0.2
							c0,0.1-0.1,0.2-0.1,0.3s0,0.1-0.1,0.2s0,0-0.1,0.1c-0.1,0.1-0.2,0.1-0.2,0.2c0,0.1-0.1,0.2-0.2,0.2c-0.1,0.1-0.1,0.1-0.1,0.2
							c0,0.1-0.1,0.1-0.1,0.2c-0.1,0.1-0.1,0-0.2,0.1s-0.1,0.1-0.2,0.2s-0.1,0.1-0.2,0.1c0,0-0.1,0.1-0.1,0.1l-0.1,0
							c0,0,0,0.1-0.1,0s-0.1,0-0.1-0.1s0-0.1,0-0.2s0-0.1,0.1-0.2s0.1-0.1,0.1-0.1s0.1-0.1,0.1-0.1s0,0,0-0.1c0-0.1,0-0.1,0-0.2
							c0,0,0,0,0.1-0.1s0.1-0.1,0.2-0.1s0-0.1,0-0.1s0.1-0.1,0.1-0.2s0,0,0.1-0.1c0.1,0,0.1-0.1,0.2-0.2c0-0.1,0.1-0.1,0.1-0.2
							c0.1-0.1,0.1-0.1,0.2-0.2s0.1,0,0.1-0.1s0.1-0.2-0.1-0.1c-0.1,0.1-0.2,0.1-0.3,0.2c-0.1,0.1-0.2,0.2-0.3,0.2
							c-0.1,0-0.1,0.1-0.2,0.2c-0.1,0.1-0.2,0.2-0.2,0.2c-0.1,0.1-0.1,0.1-0.2,0.2s-0.1,0.1-0.1,0.2c-0.1,0.1-0.1,0.3-0.2,0.4
							c-0.1,0.1-0.1,0.2-0.1,0.2c0,0.1-0.1,0.1-0.2,0.2c-0.1,0.1-0.2,0.2-0.3,0.2s0-0.1,0-0.2c0-0.1,0-0.1,0-0.2c0,0,0,0,0-0.2
							c0-0.1,0-0.2,0-0.2c0-0.1,0-0.1,0-0.2 M122.4,87.3c0.1,0,0.1,0,0.2,0c0.1,0,0.2,0,0.2,0c0.1,0,0.1,0.1,0.2,0.1
							c0.1,0,0.2,0.1,0.2,0.1c0.1,0,0.2,0.1,0.2,0.1c0.1,0,0.1,0.1,0.2,0.2c0.1,0.1,0.2,0,0.2,0.1s0.2,0.2,0.2,0.2
							c0.1,0,0.1,0.1,0.2,0.1c0.1,0.1,0.1,0.1,0.2,0.1s0.1,0,0.2,0s0.1,0.1,0.2,0s0-0.2-0.1-0.2s-0.1,0-0.1-0.1s0-0.1-0.2-0.1
							s-0.2-0.2-0.2-0.2l-0.3-0.2c-0.1-0.1-0.1-0.2-0.2-0.2s-0.1-0.1-0.1-0.1s-0.1-0.1-0.2-0.1s-0.2-0.1-0.4-0.2s-0.3-0.1-0.1-0.2
							c0.1,0,0.2,0,0.3,0c0.1,0,0.1,0,0.2,0c0.1,0,0.1,0,0.2-0.1c0,0,0.1,0,0.2,0c0,0,0.1,0,0.2,0c0.1,0,0.2,0,0.2,0
							c0.1,0,0.2,0,0.3,0c0.1,0,0.2,0,0.3,0.1s0.2,0.1,0.3,0.2s0,0.1,0,0.1s0,0,0.1,0.1c0.1,0,0.1,0.1,0.2,0.2c0,0,0,0,0,0.1
							s0.1,0,0.1,0.1c0,0,0,0.1,0,0.1c0,0,0.1,0.1,0.1,0.1c0,0,0,0,0.1,0.1c0,0.1,0.1,0.1,0.1,0.2c0,0.1,0.1,0.1,0.1,0.2
							c0,0.1,0.1,0.1,0.1,0.2c0,0.1,0.1,0,0,0.1s-0.1,0-0.2,0.1s-0.1,0-0.2,0.1s0,0-0.1,0.1s-0.1,0.1-0.2,0.1s-0.1,0-0.1,0
							c0,0-0.1,0-0.1,0c-0.1,0-0.2,0-0.3,0c-0.1,0-0.3,0-0.4,0c-0.2,0-0.4,0-0.5,0c-0.1,0-0.3-0.1-0.4-0.2s-0.1-0.1-0.2-0.2
							s-0.3-0.2-0.4-0.3c-0.1-0.1-0.2-0.1-0.3-0.2c0-0.1-0.1-0.2-0.1-0.2c-0.1-0.1-0.1-0.2-0.2-0.2s-0.1-0.1-0.1-0.2s0-0.2,0-0.2
							 M128.2,82.8c-0.1,0.1-0.2,0.2-0.3,0.3c-0.1,0.1-0.2,0.2-0.3,0.3c-0.1,0.1-0.1,0.1-0.1,0.2c0,0-0.1,0-0.2,0.1
							s-0.2,0.1-0.3,0.2l-0.2,0.2c-0.1,0.1-0.1,0.1-0.2,0.1c-0.1,0-0.3,0-0.4,0c-0.1,0-0.2,0-0.3,0c-0.1,0-0.4,0-0.4,0.1
							s0,0.1-0.1,0.1h-0.4c-0.1,0-0.1,0-0.2,0c-0.1,0-0.1,0-0.2,0c-0.1,0-0.1,0-0.1,0s-0.2,0-0.3,0s-0.1-0.1-0.2,0
							c-0.1,0-0.2,0-0.3,0c-0.1,0-0.1-0.1-0.2-0.1s-0.1,0-0.1-0.1s-0.1,0-0.1-0.1s-0.1-0.1-0.1-0.2s0.1,0,0.2-0.1s0.2-0.1,0.3-0.2
							s0.2,0,0.2-0.1l0.1-0.1c0,0,0,0,0.1,0c0.1,0,0.2,0,0.3,0c0.1,0,0.2,0,0.3,0c0.1,0,0.3,0,0.4,0c0.1,0,0.4,0,0.5,0
							c0.1,0,0.2,0,0.3-0.1c0.1,0,0.1-0.1,0.2-0.1c0.1,0,0.2,0,0.2-0.1c0.1,0,0.1,0,0.2-0.1s0-0.2-0.2-0.1s-0.3,0-0.4,0
							s-0.1,0-0.2,0h-0.4c-0.1,0-0.3,0-0.4,0c-0.1,0-0.2,0-0.3,0c-0.1,0-0.1,0-0.2,0c0,0,0-0.1-0.1-0.1s-0.1,0.1-0.2,0.1
							c-0.1,0-0.2,0-0.2,0.1c-0.1,0.1-0.1,0.1-0.1,0.1s-0.3,0.1-0.2,0c0.1-0.1,0.1-0.1,0.2-0.2c0.1-0.1,0.2-0.1,0.3-0.2
							c0.1-0.1,0.2-0.2,0.3-0.2c0.1,0,0.2-0.1,0.2-0.2c0.1-0.1,0.1,0,0.2-0.1s0.1,0,0.2-0.1s0.2-0.1,0.2-0.1c0.1,0,0.2,0,0.3,0
							c0.1,0,0.2,0,0.3,0c0.1-0.1,0.3-0.1,0.3,0s0.2,0.1,0.3,0c0.1,0,0.3,0,0.4,0.1c0.1,0,0.4,0.1,0.5,0.2s0.2,0,0.3,0.1
							s0,0.1,0.1,0.2c0.1,0.1,0.2,0.1,0.3,0.2c0.1,0,0,0-0.1,0.2"/>
					</g>
					<g id="g852">
						<path id="path854" class="st1" d="M128.9,97.2c-0.1,0-0.3,0-0.5,0c-0.2,0-0.3,0-0.5,0c-0.1,0-0.2,0-0.3,0
							c-0.1,0-0.1,0-0.1-0.1c-0.1,0-0.2,0-0.3,0c-0.1,0-0.1,0-0.2,0c-0.1,0-0.2,0-0.3,0c-0.1,0-0.2,0-0.3,0c-0.1,0-0.2,0-0.3,0
							c-0.1,0-0.1,0-0.2,0c-0.1,0-0.2,0-0.3,0c-0.1,0-0.2,0-0.3,0c-0.1,0-0.1,0-0.1-0.1s0,0,0-0.2c0-0.1,0-0.2,0-0.3
							c0-0.1,0-0.2,0-0.2c0-0.1,0-0.1,0-0.2s0-0.1,0.1-0.1h0.2c0.1,0,0.1,0,0.1,0s0.1,0,0.1,0c0-0.1,0.1-0.1,0.1-0.1
							c0.1,0,0.2,0,0.2,0c0.1,0,0.1,0,0.2-0.1c0.1,0,0.1,0,0.2,0c0.1,0,0.1-0.1,0.2-0.2c0-0.1,0-0.1,0-0.2c0-0.1-0.1-0.2-0.1-0.2
							c-0.1-0.1,0-0.1,0-0.3s0-0.1,0-0.2c0-0.1,0-0.1-0.1-0.2c0-0.1,0,0,0-0.1c0-0.1,0-0.1-0.1-0.2c0,0-0.1-0.1-0.1-0.1
							c0-0.1,0,0,0-0.1s0-0.1-0.1-0.2s0,0,0-0.1s0-0.1,0-0.1c0,0,0-0.1,0-0.2c0,0-0.1-0.2-0.1-0.2s-0.1,0-0.2,0.1s-0.1,0-0.2,0
							s-0.1,0.1-0.1,0.1c0,0-0.1,0-0.1,0c0,0-0.1,0-0.1,0s-0.1,0-0.1,0s-0.1-0.1-0.1,0s-0.1,0-0.2,0s-0.1-0.1-0.1-0.2s0-0.1-0.1-0.2
							s-0.1-0.1-0.2-0.2c-0.1-0.1-0.1-0.2-0.2-0.2c-0.1-0.1,0-0.1-0.1-0.1s0.2-0.2,0.1-0.3s-0.1,0-0.2-0.1c-0.1,0-0.1-0.1-0.2-0.1
							c0,0-0.1,0,0,0s0-0.1,0.1-0.1s0.1-0.1,0.2-0.2s0.1-0.1,0.1-0.2s0-0.1-0.1-0.2c0-0.1-0.1-0.1-0.1-0.2c0-0.1-0.1-0.1-0.1-0.1
							c0,0-0.1-0.1-0.1-0.1s-0.1-0.1-0.2-0.1c-0.1,0-0.1,0-0.2,0c-0.1,0,0,0-0.1,0s-0.2,0-0.2,0s-0.1,0.1-0.2,0.1s-0.1,0.1-0.1,0.2
							s-0.1,0.1-0.2,0.1s-0.1,0-0.1,0.1s0,0.1-0.1,0.2c0,0.1,0,0.2,0,0.2c0,0.1,0,0,0,0.2c0,0.1,0,0.2,0.1,0.2
							c0,0.1,0.1,0.1,0.1,0.1s-0.1,0-0.1,0.1s0,0.1,0,0.1s0,0.1-0.1,0.1c0,0-0.1,0.1-0.1,0.1c-0.1,0.1-0.1,0.1-0.2,0.2
							s-0.1,0.1-0.2,0.1c-0.1,0-0.1,0.1-0.1,0.2c0,0.1,0,0,0,0.2s-0.1,0.1-0.2,0.3c0,0.1-0.1,0.3-0.1,0.4c0,0.1,0,0.1-0.1,0.2
							c0,0.1,0,0,0.1,0.1s0,0.1-0.1,0.1c-0.1,0-0.1,0-0.2,0.1c-0.1,0-0.2,0.1-0.2,0.1c-0.1,0-0.1,0-0.2,0c-0.1,0-0.1,0-0.2,0
							c-0.1,0-0.1,0-0.2,0.2s0,0.1,0,0.2s0.1,0.1,0.2,0.1c0.1,0,0.2,0,0.2,0.1c0.1,0,0.3,0,0.4,0c0.1,0,0.2,0,0.2-0.1
							c0,0,0,0,0.1,0.1s0-0.1,0.1,0s0,0,0.1,0.1s0,0.1,0,0.2s0,0.1-0.1,0.2s0,0,0,0.2s0,0,0,0.1c0,0.1,0,0.1-0.1,0.2
							c0,0.1,0,0.2,0,0.2c0,0.1,0,0.1,0,0.2c0,0.1-0.1,0.2-0.1,0.2c-0.1,0.1-0.1,0,0,0.1s0,0.1,0,0.2c0,0.1,0,0.2,0,0.4
							c-0.1,0-0.1,0-0.2,0.1c-0.1,0.1-0.2,0-0.2,0s-0.1-0.1-0.1,0c0,0-0.1,0-0.1,0c-0.1,0-0.1,0-0.2,0c-0.1,0-0.1,0-0.1,0.1
							s0,0.1,0.1,0.1l0.1,0.2c0,0,0.1,0.1,0.1,0.1c0,0.1,0,0.1,0,0.1s0,0,0,0.1s0,0,0,0s0.2,0,0.2,0s0,0.1,0.1,0s0.1,0,0.2,0
							s0.2,0,0.3-0.1c0.2,0,0.4,0,0.6,0c0.1,0,0.2,0,0.3,0h0.4c0.1,0,0.1,0,0.2,0s0.1,0,0.3,0c0.2,0,0.3,0,0.5,0c0.2,0,0.3,0,0.4,0
							s0,0,0.1,0.1s0.1-0.1,0.2-0.1c0.1,0,0.3,0,0.4,0c0.1,0,0.3,0,0.4,0h0.3c0.1,0,0.1,0,0.2,0s0.1,0,0.2,0h0.1c0.1,0,0.2,0,0.3,0
							s0.1,0,0.2,0c0.1,0,0.3,0,0.4,0c0.1,0,0.3,0,0.4,0.1c0.1,0,0.4,0,0.5,0.1c0.1,0.1,0.1,0,0.1-0.1s0-0.1,0-0.1s0.1,0,0.1-0.1
							c0.1-0.1,0.1-0.1,0.1-0.1c0,0,0-0.1,0.1-0.1c0,0,0.1-0.1,0.2-0.1c0.1,0,0.1,0,0.1-0.1c0-0.1,0-0.1,0.1-0.2
							c0-0.1-0.1-0.1-0.2-0.1 M123.3,91.4L123.3,91.4l0.2-0.2v-0.1c0,0,0,0,0.1-0.1c0,0,0-0.1,0-0.1s0,0,0.1,0s0.1,0,0.1,0
							s0,0,0.1,0c0,0,0,0.1,0,0.1c0,0,0,0.1,0,0.1c0,0,0,0.1,0.1,0.1s0,0,0.1,0c0,0,0,0.1,0,0.1c0,0.1,0,0.1,0,0.1s-0.1,0-0.1,0.1
							c0,0,0,0.1,0,0.1c0,0,0,0.1-0.1,0c0,0-0.1,0-0.1,0c0,0,0,0.1-0.1,0l-0.1-0.1c0,0-0.1-0.1-0.1-0.1c0,0-0.1,0-0.1-0.1
							C123.3,91.5,123.3,91.4,123.3,91.4C123.3,91.4,123.3,91.3,123.3,91.4c0-0.1,0-0.1,0-0.1c0,0,0-0.1,0-0.1 M124.7,96.5
							c0,0.1,0,0.1,0,0.2s0,0.1,0,0.2c0,0.1,0,0.1-0.1,0.2c0,0.1,0,0-0.1,0c-0.1,0-0.1,0-0.2,0c-0.1,0,0-0.1-0.1,0
							c-0.1,0-0.1,0-0.2,0c-0.1,0-0.1,0-0.2,0s-0.2,0-0.3,0s-0.1,0-0.2,0s0-0.1-0.1,0s-0.2,0-0.3,0h-0.2c0-0.1,0.1-0.2,0.1-0.3
							c0-0.1,0-0.2,0-0.2c0-0.1,0-0.2,0-0.3c0-0.1,0-0.1,0-0.2c0-0.1,0-0.2,0-0.2c0-0.1,0-0.1,0-0.1c0-0.1,0-0.1,0-0.2
							c0-0.1,0-0.2,0-0.2c0-0.1,0-0.1,0.1-0.2s0-0.2,0.1-0.2s0-0.1-0.1-0.2s-0.1-0.2-0.1-0.2s0-0.1,0-0.1v-0.1V94c0,0,0-0.1,0-0.1
							s0-0.1,0.1-0.1c0-0.1,0-0.1,0-0.2c0-0.1,0-0.1,0-0.2s0-0.1,0-0.2c0-0.1,0-0.1,0-0.2c0-0.1,0-0.1,0.1-0.1s0.1-0.1,0.2-0.1
							s0.1-0.1,0.2-0.1s0.1-0.1,0.2-0.1s0.1-0.1,0.2-0.1c0.1,0,0.2,0,0.3,0c0.1,0,0.1,0.1,0.2,0.1c0,0,0.1,0.1,0.2,0.1
							c0.1,0,0.1,0.1,0.1,0.2c0,0.1,0,0.2,0.1,0.2c0,0.1,0,0.1,0.1,0.2c0,0.1,0,0.2,0.1,0.2c0.1,0.1,0.1,0.1,0,0.1
							c-0.1,0-0.2,0-0.2,0.1c-0.1,0.1-0.1,0.1-0.2,0.1c-0.1,0.1-0.1,0.1-0.2,0.1c-0.1,0,0,0-0.1,0.1s-0.1,0.1-0.1,0.2
							s0.1,0.1,0.1,0.1s0,0.1,0,0.2s0,0,0.1,0.1c0,0.1,0.1,0.1,0.1,0.2c0,0.1,0,0.1,0.1,0.1s0,0,0,0.1s0,0.1,0,0.1s0,0.1,0.1,0.2
							s0,0.2,0.1,0.3s0,0.1,0,0.3s0.1,0.1,0.1,0.2s0,0.1,0.1,0.2s0,0.1,0.1,0.2s0.1,0,0.1,0c0.1,0,0.2-0.1,0.3-0.1
							c0.1,0,0.1,0,0,0.1 M125.1,95.6c-0.1,0-0.2,0-0.2,0.1c-0.1,0.1-0.1,0-0.2,0s-0.1,0.2-0.2,0c0-0.1-0.1-0.2-0.1-0.3
							c0-0.1,0-0.1-0.1-0.2c-0.1,0-0.1-0.1-0.1-0.2c0-0.1,0,0,0-0.2s0-0.1-0.1-0.2s-0.1-0.1-0.1-0.2s0,0,0-0.2c0,0,0.1,0,0.1,0
							c0.1,0,0.1,0,0.1,0s0-0.1,0.1-0.1s0.1,0,0.1,0s0.1,0,0.1-0.1s0.1-0.1,0.1,0s0.1,0.1,0.1,0.2s0,0.1,0,0.2c0,0.1,0,0.1,0,0.2
							c0,0.1-0.1,0.1,0,0.2s0.2,0.2,0.3,0.1s0.1,0,0.2-0.1c0-0.1,0.1-0.1,0.1-0.2c0-0.1,0-0.1,0-0.2c0-0.1,0-0.1,0-0.2
							c0,0,0,0,0-0.1s0-0.1-0.1-0.1s0-0.1,0-0.1s0-0.2,0-0.2s0.1,0.1,0.2,0s0.1,0,0.2,0s0.1-0.1,0.2-0.1s0.1,0,0.1,0.1s0,0.1,0,0.2
							s0.1,0.2,0.1,0.2s0,0.1,0,0.1s0.1,0.1,0.1,0.2c0,0.1,0,0.1,0,0.2c0,0.1,0,0.1,0.1,0.2s0.1,0.1,0,0.2s-0.2,0.1-0.2,0.1
							c-0.1,0-0.2,0-0.2,0.1c-0.1,0.1-0.2,0.1-0.4,0.1C125.3,95.6,125.2,95.6,125.1,95.6"/>
					</g>
					<path id="path856" class="st2" d="M99.5,101h6v6h-6V101z"/>
					<path id="path858" class="st2" d="M129.4,101h6v6h-6V101z"/>
					<path id="path860" class="st2" d="M99.5,71.2h6v6h-6V71.2z"/>
					<path id="path862" class="st2" d="M129.4,71.2h6v6h-6V71.2z"/>
					<g id="g864">
						<path id="path866" class="st2" d="M117.4,64l4.2,4.2l-4.2,4.2l-4.2-4.2L117.4,64z"/>
					</g>
					<g id="g868">
						<path id="path870" class="st2" d="M117.4,105.8l4.2,4.2l-4.2,4.2l-4.2-4.2L117.4,105.8z"/>
					</g>
					<g id="g872">
						<path id="path874" class="st2" d="M96.6,84.9l4.2,4.2l-4.2,4.2l-4.2-4.2L96.6,84.9z"/>
					</g>
					<g id="g876">
						<path id="path878" class="st2" d="M138.3,84.9l4.2,4.2l-4.2,4.2l-4.2-4.2L138.3,84.9z"/>
					</g>
					<g id="g880">
						<path id="path882" class="st1" d="M33.8,93.3h1.5V83h3.9v-1.3H30V83h3.8V93.3z"/>
					</g>
					<path id="path884" class="st1" d="M40.2,93.3h1.4v-8.4h-1.4V93.3z"/>
					<g id="g886">
						<path id="path888" class="st1" d="M45.1,93.3h5.4v-1.1h-4v-7.3h-1.4L45.1,93.3z"/>
					</g>
					<g id="g890">
						<path id="path892" class="st1" d="M54.7,88.4h-1.4v-2.3h1.5c1.1,0,1.5,0.3,1.5,1.1c0,0.4-0.1,0.8-0.4,1
							C55.6,88.4,55.5,88.5,54.7,88.4 M55.2,92.2h-1.8v-2.6h2.2c0.3,0,0.5,0.1,0.7,0.3c0.6,0.5,0.6,1.3,0.2,1.9
							c-0.1,0.1-0.2,0.2-0.3,0.2C55.8,92.1,55.8,92.1,55.2,92.2 M51.9,93.3h3.6c1.3,0.1,2.5-0.8,2.6-2.1c0-0.1,0-0.1,0-0.2
							c0-1-0.6-1.9-1.6-2.1h-0.1h0.1c0.8-0.3,1.3-1.1,1.2-1.9c0-1.4-0.9-2.1-2.7-2.1h-3.1V93.3z"/>
					</g>
					<g id="g894">
						<path id="path896" class="st1" d="M60.4,84.9v5c0,1.7,0.3,2.6,1.2,3.1c0.7,0.4,1.6,0.6,2.4,0.6c0.8,0,1.7-0.2,2.4-0.6
							c0.9-0.5,1.2-1.4,1.2-3.1v-5h-1.4v5.2c0.2,1.1-0.6,2.1-1.7,2.3c-0.2,0-0.4,0-0.6,0c-1.1,0.2-2.1-0.6-2.3-1.7
							c0-0.2,0-0.4,0-0.6v-5.2H60.4z"/>
					</g>
					<g id="g898">
						<path id="path900" class="st1" d="M73.2,88.7h-1.3v-2.7h1.3c1,0,1.1,0,1.3,0.2c0.3,0.3,0.5,0.7,0.5,1.1c0,0.4-0.2,0.7-0.4,1
							C74.3,88.7,74.1,88.7,73.2,88.7 M75.3,93.3h1.6l-2.3-3.5l0,0c1.2-0.3,2-1.3,1.9-2.5c0-1.6-1.1-2.4-3.2-2.4h-2.8v8.4h1.4v-3.4
							h1.2L75.3,93.3z"/>
					</g>
					<g id="g902">
						<path id="path904" class="st1" d="M83.1,84.8c-2.8,0-4.9,1.9-4.9,4.3s2.2,4.4,5,4.4c0.8,0,1.7-0.1,2.5-0.3
							c0.1,0,0.3-0.1,0.5-0.1l0.2-0.1v-3.9H85v3l0,0c-0.5,0.1-1,0.2-1.6,0.2c-1.9,0.2-3.6-1.3-3.8-3.2c0,0,0-0.1,0-0.1
							c0.1-1.8,1.6-3.2,3.3-3.1c0,0,0.1,0,0.1,0c0.7,0,1.4,0.1,2,0.4c0.2,0.1,0.4,0.2,0.6,0.3l0,0l0.6-1.2l0,0
							c-0.4-0.2-0.8-0.4-1.3-0.5C84.4,84.8,83.8,84.7,83.1,84.8"/>
					</g>
					<g id="g906">
						<path id="path908" class="st1" d="M148.5,81.7v7.6c-0.1,1.2,0.4,2.5,1.4,3.2c0.9,0.7,2,1.1,3.2,1.1c1.2,0,2.3-0.4,3.2-1.1
							c1-0.8,1.5-2,1.3-3.2v-7.6h-1.5v7.2c0,1.4-0.1,1.8-0.6,2.4c-1.3,1.3-3.5,1.3-4.8,0c-0.6-0.6-0.7-1-0.7-2.4v-7.2H148.5z"/>
					</g>
					<g id="g910">
						<path id="path912" class="st1" d="M167,93.4h1.3v-8.5h-1.3v6.3l0,0c-0.1-0.1-0.1-0.3-0.2-0.4l-4.7-6h-1.4v8.4h1.3v-6.3h0
							c0.1,0.2,0.2,0.3,0.3,0.5L167,93.4z"/>
					</g>
					<path id="path914" class="st1" d="M171.5,93.3h1.4v-8.4h-1.4V93.3z"/>
					<g id="g916">
						<path id="path918" class="st1" d="M178.5,93.5h0.8l3.7-8.6h-1.5l-2.4,6.1c0,0,0,0.1,0,0.1v0.1V91v-0.1l-2.5-6.1H175
							L178.5,93.5z"/>
					</g>
					<g id="g920">
						<path id="path922" class="st1" d="M184.9,93.3h5.4v-1.1h-4v-2.6h3.2v-1.2h-3.2v-2.3h3.9v-1.2h-5.3L184.9,93.3z"/>
					</g>
					<g id="g924">
						<path id="path926" class="st1" d="M195.6,88.7h-1.2v-2.6h1.2c1,0,1,0,1.3,0.2c0.3,0.2,0.5,0.6,0.5,1c0,0.4-0.1,0.7-0.4,1
							C196.6,88.6,196.4,88.6,195.6,88.7 M196.9,89.8L196.9,89.8c1.2-0.3,2-1.3,1.9-2.5c0-1.6-1.1-2.4-3.2-2.4h-2.7v8.4h1.4v-3.4
							h1.2l2.2,3.4h1.6L196.9,89.8z"/>
					</g>
					<g id="g928">
						<path id="path930" class="st1" d="M200.6,92.6L200.6,92.6c0.4,0.3,0.8,0.5,1.2,0.6c0.6,0.2,1.1,0.3,1.7,0.3
							c1.9,0,3.1-0.9,3.1-2.4c0-1.1-0.5-1.6-2.1-2.4s-1.9-0.9-2.1-1.3c-0.1-0.1-0.1-0.3-0.1-0.4c0-0.6,0.6-1,1.7-1
							c0.4,0,0.8,0.1,1.2,0.2c0.4,0.1,0.7,0.3,1,0.5l0,0l0.5-1.2l0,0c-0.4-0.2-0.7-0.4-1.1-0.5c-0.5-0.1-1-0.2-1.6-0.2
							c-1.9,0-3.1,0.9-3.1,2.3c0,0.9,0.6,1.6,1.9,2.2l1.5,0.7c0.7,0.3,0.9,0.7,0.9,1.2s-0.6,1.1-1.5,1.1c-0.5,0-0.9-0.1-1.4-0.3
							c-0.4-0.2-0.8-0.4-1.1-0.7l0,0L200.6,92.6z"/>
					</g>
					<path id="path932" class="st1" d="M209.2,93.3h1.4v-8.4h-1.4V93.3z"/>
					<g id="g934">
						<path id="path936" class="st1" d="M215.5,93.3h1.4v-7.3h3v-1.2h-7.3v1.2h3L215.5,93.3z"/>
					</g>
					<g id="g938">
						<path id="path940" class="st1" d="M223.3,93.3h1.4v-3.8l3.2-4.7h-1.6l-2.2,3.4l-2.2-3.4h-1.6l3,4.7L223.3,93.3z"/>
					</g>
				</g>
			</g>
		</g>
	</g>
</g>
</svg>
